<?xml version="1.0" encoding="UTF-8"?>
<svg id="Calque_1" data-name="Calque 1" xmlns="http://www.w3.org/2000/svg" viewBox="0 0 200 200">
  <defs>
    <style>
      .cls-1 {
        fill: #fff;
      }

      .cls-1, .cls-2 {
        stroke: #ccc;
        stroke-miterlimit: 10;
        stroke-width: 2px;
      }

      .cls-2 {
        fill: none;
        stroke-linecap: round;
      }

      .cls-3 {
        fill: #ccc;
      }
    </style>
  </defs>
  <path class="cls-1" d="M145,104.41v-4.17c0-24.75-20.25-45-45-45h0c-24.75,0-45,20.25-45,45v4.17c-3.57,0-6.5,2.92-6.5,6.5s2.93,6.5,6.5,6.5c.17,0,.33-.01.49-.03,3.45,18.84,24.86,37.86,43.51,37.86h2c18.65,0,40.05-19.02,43.51-37.86.16.01.33.03.49.03,3.58,0,6.5-2.92,6.5-6.5s-2.92-6.5-6.5-6.5Z"/>
  <g>
    <path class="cls-2" d="M95,130.52s5,2,10,0"/>
    <path class="cls-2" d="M99.89,115.85l-3.78,7.64c-.36.72-.07,1.6.65,1.97l3.24,1.68"/>
    <g>
      <circle class="cls-3" cx="120.93" cy="116" r="4"/>
      <circle class="cls-3" cx="79.07" cy="116" r="4"/>
    </g>
  </g>
</svg>