<?xml version="1.0" encoding="UTF-8"?>
<svg id="Calque_1" data-name="Calque 1" xmlns="http://www.w3.org/2000/svg" viewBox="0 0 200 200">
  <defs>
    <style>
      .cls-1 {
        fill: #fff;
        stroke: #ccc;
        stroke-width: 2px;
      }

      .cls-1, .cls-2 {
        stroke-miterlimit: 10;
      }

      .cls-2 {
        stroke: #000;
        stroke-linecap: round;
        stroke-width: 1.79px;
      }

      .cls-3 {
        opacity: .7;
      }
    </style>
  </defs>
  <path class="cls-1" d="M145,104.41v-4c0-24.75-20.25-45-45-45h0c-24.75,0-45,20.25-45,45v4c-3.57,0-6.5,2.92-6.5,6.5s2.93,6.5,6.5,6.5v1c0,20.35,16.65,37,37,37h16c20.35,0,37-16.65,37-37v-1c3.57,0,6.5-2.92,6.5-6.5s-2.93-6.5-6.5-6.5Z"/>
  <g class="cls-3">
    <line class="cls-2" x1="61.36" y1="128.41" x2="61.36" y2="128.41"/>
    <line class="cls-2" x1="77.47" y1="137.22" x2="77.47" y2="137.22"/>
    <line class="cls-2" x1="66.6" y1="137.81" x2="66.6" y2="137.81"/>
    <line class="cls-2" x1="75.32" y1="145.66" x2="75.32" y2="145.66"/>
    <line class="cls-2" x1="86.96" y1="133.52" x2="86.96" y2="133.52"/>
    <line class="cls-2" x1="111.81" y1="150.6" x2="111.81" y2="150.6"/>
    <line class="cls-2" x1="89.74" y1="150.6" x2="89.74" y2="150.6"/>
    <line class="cls-2" x1="70.63" y1="122.31" x2="70.63" y2="122.31"/>
    <line class="cls-2" x1="85.58" y1="143.14" x2="85.58" y2="143.14"/>
    <line class="cls-2" x1="71.44" y1="130.72" x2="71.44" y2="130.72"/>
    <line class="cls-2" x1="81.06" y1="127.11" x2="81.06" y2="127.11"/>
    <line class="cls-2" x1="138.62" y1="127.91" x2="138.62" y2="127.91"/>
    <line class="cls-2" x1="121.53" y1="136.35" x2="121.53" y2="136.35"/>
    <line class="cls-2" x1="133.45" y1="137.81" x2="133.45" y2="137.81"/>
    <line class="cls-2" x1="125.02" y1="145.66" x2="125.02" y2="145.66"/>
    <line class="cls-2" x1="113.81" y1="134.62" x2="113.81" y2="134.62"/>
    <line class="cls-2" x1="100" y1="148.29" x2="100" y2="148.29"/>
    <line class="cls-2" x1="139.82" y1="118.56" x2="139.82" y2="118.56"/>
    <line class="cls-2" x1="106.32" y1="141.45" x2="106.32" y2="141.45"/>
    <line class="cls-2" x1="130.39" y1="122.31" x2="130.39" y2="122.31"/>
    <line class="cls-2" x1="116.6" y1="144" x2="116.6" y2="144"/>
    <line class="cls-2" x1="128.27" y1="130.31" x2="128.27" y2="130.31"/>
    <line class="cls-2" x1="120.41" y1="125.36" x2="120.41" y2="125.36"/>
    <line class="cls-2" x1="60.37" y1="118.56" x2="60.37" y2="118.56"/>
    <line class="cls-2" x1="94.8" y1="141.45" x2="94.8" y2="141.45"/>
  </g>
</svg>