<?xml version="1.0" encoding="UTF-8"?>
<svg id="Calque_1" data-name="Calque 1" xmlns="http://www.w3.org/2000/svg" viewBox="0 0 120 120">
  <defs>
    <style>
      .cls-1, .cls-2 {
        fill: #f0f2f8;
      }

      .cls-3 {
        fill: none;
        stroke-linecap: round;
        stroke-linejoin: round;
        stroke-width: 2px;
      }

      .cls-3, .cls-4 {
        stroke: #f0f2f8;
      }

      .cls-5 {
        fill: #8d9ac7;
      }

      .cls-6, .cls-2 {
        stroke: #fff;
      }

      .cls-6, .cls-2, .cls-4 {
        stroke-miterlimit: 10;
      }

      .cls-6, .cls-4, .cls-7 {
        fill: #212636;
      }

      .cls-8 {
        opacity: .8;
      }

      .cls-9 {
        opacity: .4;
      }

      .cls-10 {
        opacity: .6;
      }
    </style>
  </defs>
  <path class="cls-2" d="M35.28,10.5h48.44c1.53,0,2.78,1.24,2.78,2.78v22.22h-54V13.28c0-1.53,1.24-2.78,2.78-2.78Z"/>
  <path class="cls-7" d="M31.5,36h57c1.1,0,2,.9,2,2v58.5H29.5v-58.5c0-1.1.9-2,2-2Z"/>
  <line class="cls-3" x1="17.15" y1="97" x2="102.85" y2="97"/>
  <rect class="cls-1" x="38" y="45" width="44" height="51"/>
  <rect class="cls-4" x="38.56" y="68.65" width="42.93" height="3.7"/>
  <rect class="cls-6" x="33.5" y="30.5" width="15" height="10" rx="1.93" ry="1.93"/>
  <g class="cls-9">
    <path class="cls-5" d="M73.99,24.94v-11.42c0-.22.18-.39.39-.39h0c.22,0,.39.18.39.39v11.42h-.78Z"/>
    <path class="cls-5" d="M75.11,24.94v-11.42c0-.22.18-.39.39-.39h0c.22,0,.39.18.39.39v11.42h-.78Z"/>
    <path class="cls-5" d="M76.23,24.94v-11.42c0-.22.18-.39.39-.39h0c.22,0,.39.18.39.39v11.42h-.78Z"/>
    <path class="cls-5" d="M77.35,24.94v-11.42c0-.22.18-.39.39-.39h0c.22,0,.39.18.39.39v11.42h-.78Z"/>
    <path class="cls-5" d="M78.47,24.94v-11.42c0-.22.18-.39.39-.39h0c.22,0,.39.18.39.39v11.42h-.78Z"/>
    <path class="cls-5" d="M79.59,24.94v-11.42c0-.22.18-.39.39-.39h0c.22,0,.39.18.39.39v11.42h-.78Z"/>
    <path class="cls-5" d="M80.71,24.94v-11.42c0-.22.18-.39.39-.39h0c.22,0,.39.18.39.39v11.42h-.78Z"/>
    <path class="cls-5" d="M81.83,24.94v-11.42c0-.22.18-.39.39-.39h0c.22,0,.39.18.39.39v11.42h-.78Z"/>
    <path class="cls-5" d="M82.94,24.94v-11.42c0-.22.18-.39.39-.39h0c.22,0,.39.18.39.39v11.42h-.78Z"/>
  </g>
  <g class="cls-10">
    <path class="cls-5" d="M61.06,24.94v-11.42c0-.22.18-.39.39-.39h0c.22,0,.39.18.39.39v11.42h-.78Z"/>
    <path class="cls-5" d="M62.18,24.94v-11.42c0-.22.18-.39.39-.39h0c.22,0,.39.18.39.39v11.42h-.78Z"/>
    <path class="cls-5" d="M63.3,24.94v-11.42c0-.22.18-.39.39-.39h0c.22,0,.39.18.39.39v11.42h-.78Z"/>
    <path class="cls-5" d="M64.42,24.94v-11.42c0-.22.18-.39.39-.39h0c.22,0,.39.18.39.39v11.42h-.78Z"/>
    <path class="cls-5" d="M65.54,24.94v-11.42c0-.22.18-.39.39-.39h0c.22,0,.39.18.39.39v11.42h-.78Z"/>
    <path class="cls-5" d="M66.66,24.94v-11.42c0-.22.18-.39.39-.39h0c.22,0,.39.18.39.39v11.42h-.78Z"/>
    <path class="cls-5" d="M67.78,24.94v-11.42c0-.22.18-.39.39-.39h0c.22,0,.39.18.39.39v11.42h-.78Z"/>
    <path class="cls-5" d="M68.9,24.94v-11.42c0-.22.18-.39.39-.39h0c.22,0,.39.18.39.39v11.42h-.78Z"/>
    <path class="cls-5" d="M70.02,24.94v-11.42c0-.22.18-.39.39-.39h0c.22,0,.39.18.39.39v11.42h-.78Z"/>
  </g>
  <g class="cls-8">
    <path class="cls-5" d="M48.13,24.94v-11.42c0-.22.18-.39.39-.39h0c.22,0,.39.18.39.39v11.42h-.78Z"/>
    <path class="cls-5" d="M49.25,24.94v-11.42c0-.22.18-.39.39-.39h0c.22,0,.39.18.39.39v11.42h-.78Z"/>
    <path class="cls-5" d="M50.37,24.94v-11.42c0-.22.18-.39.39-.39h0c.22,0,.39.18.39.39v11.42h-.78Z"/>
    <path class="cls-5" d="M51.49,24.94v-11.42c0-.22.18-.39.39-.39h0c.22,0,.39.18.39.39v11.42h-.78Z"/>
    <path class="cls-5" d="M52.61,24.94v-11.42c0-.22.18-.39.39-.39h0c.22,0,.39.18.39.39v11.42h-.78Z"/>
    <path class="cls-5" d="M53.73,24.94v-11.42c0-.22.18-.39.39-.39h0c.22,0,.39.18.39.39v11.42h-.78Z"/>
    <path class="cls-5" d="M54.85,24.94v-11.42c0-.22.18-.39.39-.39h0c.22,0,.39.18.39.39v11.42h-.78Z"/>
    <path class="cls-5" d="M55.97,24.94v-11.42c0-.22.18-.39.39-.39h0c.22,0,.39.18.39.39v11.42h-.78Z"/>
    <path class="cls-5" d="M57.09,24.94v-11.42c0-.22.18-.39.39-.39h0c.22,0,.39.18.39.39v11.42h-.78Z"/>
  </g>
  <g>
    <path class="cls-5" d="M35.2,24.94v-11.42c0-.22.18-.39.39-.39h0c.22,0,.39.18.39.39v11.42h-.78Z"/>
    <path class="cls-5" d="M36.32,24.94v-11.42c0-.22.18-.39.39-.39h0c.22,0,.39.18.39.39v11.42h-.78Z"/>
    <path class="cls-5" d="M37.44,24.94v-11.42c0-.22.18-.39.39-.39h0c.22,0,.39.18.39.39v11.42h-.78Z"/>
    <path class="cls-5" d="M38.56,24.94v-11.42c0-.22.18-.39.39-.39h0c.22,0,.39.18.39.39v11.42h-.78Z"/>
    <path class="cls-5" d="M39.68,24.94v-11.42c0-.22.18-.39.39-.39h0c.22,0,.39.18.39.39v11.42h-.78Z"/>
    <path class="cls-5" d="M40.8,24.94v-11.42c0-.22.18-.39.39-.39h0c.22,0,.39.18.39.39v11.42h-.78Z"/>
    <path class="cls-5" d="M41.92,24.94v-11.42c0-.22.18-.39.39-.39h0c.22,0,.39.18.39.39v11.42h-.78Z"/>
    <path class="cls-5" d="M43.04,24.94v-11.42c0-.22.18-.39.39-.39h0c.22,0,.39.18.39.39v11.42h-.78Z"/>
    <path class="cls-5" d="M44.16,24.94v-11.42c0-.22.18-.39.39-.39h0c.22,0,.39.18.39.39v11.42h-.78Z"/>
  </g>
  <g>
    <rect class="cls-7" x="56.02" y="46.01" width="7.96" height="12.52" rx="1.39" ry="1.39"/>
    <path class="cls-7" d="M61.38,54.51v4.91c0,.17-.05.34-.14.49l-.81,1.3c-.2.32-.66.32-.86,0l-.81-1.3c-.09-.15-.14-.32-.14-.49v-4.91h2.77Z"/>
  </g>
</svg>