<svg width="83" height="104" viewBox="0 0 83 104" fill="none" xmlns="http://www.w3.org/2000/svg">
    <mask id="mask0_2430_2268" style="mask-type:alpha" maskUnits="userSpaceOnUse" x="0" y="0" width="83" height="104">
        <rect width="83" height="104" fill="#D9D9D9"/>
    </mask>
    <g mask="url(#mask0_2430_2268)">
        <path d="M68.2194 53.7281V47.7921C68.2194 35.1201 57.8764 24.7681 45.2508 24.7681H36.44C23.7985 24.7681 13.4714 35.1361 13.4714 47.7921V53.7281C13.4714 53.7281 13.4394 53.7281 13.4235 53.7281C11.2846 53.7281 9.56079 55.4561 9.56079 57.6001C9.56079 59.7441 11.2846 61.4721 13.4235 61.4721C13.4235 61.4721 13.4554 61.4721 13.4714 61.4721C13.4714 74.1441 23.8144 84.5121 36.44 84.5121H45.2508C57.8923 84.5121 68.2194 74.1441 68.2194 61.4881C70.3583 61.4881 72.0821 59.7601 72.0821 57.6161C72.0821 55.4721 70.3583 53.7441 68.2194 53.7441V53.7281Z" fill="#F4DF1E"/>
        <path d="M52.4653 61.44C53.7435 61.44 54.7797 60.4013 54.7797 59.12C54.7797 57.8387 53.7435 56.8 52.4653 56.8C51.1871 56.8 50.1509 57.8387 50.1509 59.12C50.1509 60.4013 51.1871 61.44 52.4653 61.44Z" fill="black"/>
        <path d="M27.6611 61.44C28.9393 61.44 29.9755 60.4013 29.9755 59.12C29.9755 57.8387 28.9393 56.8 27.6611 56.8C26.3829 56.8 25.3467 57.8387 25.3467 59.12C25.3467 60.4013 26.3829 61.44 27.6611 61.44Z" fill="black"/>
        <path d="M40.2068 59.7761L37.9562 64.3521C37.7487 64.7841 37.9083 65.3121 38.3393 65.5361L40.2706 66.5441" stroke="black" stroke-width="0.75" stroke-miterlimit="10" stroke-linecap="round"/>
        <path d="M69.5122 43.1201C67.8363 30.5601 55.5299 20.8 40.574 20.8C24.5645 20.8 11.5718 31.984 11.4282 45.824C11.4282 46.528 11.4282 47.216 11.4282 47.8881C11.4282 47.8881 11.109 57.6161 20.9572 56.848C22.5055 56.7201 22.2341 55.4561 21.4361 54.048C23.3036 55.744 26.0968 57.3441 29.9915 57.1361C29.9915 57.1361 25.3786 54.208 25.3466 50.24C25.3466 50.24 27.3099 57.584 40.2068 57.1521C40.2068 57.1521 35.7376 55.392 34.4766 52.08C34.4766 52.08 43.9418 57.904 53.2634 57.168C53.2634 57.168 48.7303 55.84 46.8309 51.616C46.8309 51.616 57.174 57.7121 62.968 57.2321C62.968 57.2321 70.5018 60.8321 69.6559 45.6641C69.608 44.864 69.5761 44.0161 69.5122 43.1201Z" fill="#D86C09" stroke="#D86C09" stroke-linecap="round" stroke-linejoin="round"/>
        <path d="M51.9229 88.368C49.8798 87.952 48.4114 86.16 48.4114 84.064V82.208H33.2V84.064C33.2 86.144 31.7316 87.952 29.6885 88.368C29.6885 88.368 40.0316 91.824 51.9069 88.368H51.9229Z" fill="#F4DF1E"/>
        <path d="M74.1891 98.7999C73.407 95.0559 70.4701 92.1279 66.7351 91.3759L51.9228 88.3679L55.7057 89.1359C55.7057 89.1359 50.3426 93.0399 40.207 93.0399C40.207 93.0399 28.8743 92.2399 25.3468 89.2479L29.7203 88.3679L14.908 91.3759C11.173 92.1279 8.23606 95.0559 7.45394 98.7999L6.38452 103.872H75.2745L74.2051 98.7999H74.1891Z" fill="#EDECE6"/>
        <path d="M40.207 93.0399C50.3425 93.0399 55.7056 89.1359 55.7056 89.1359L51.9227 88.3679C40.0473 91.8239 29.7043 88.3679 29.7043 88.3679L25.3308 89.2479C28.8743 92.2399 40.191 93.0399 40.191 93.0399H40.207Z" fill="#EDECE6"/>
        <path d="M44.7722 74.1601C46.1289 73.9201 46.9749 72.5281 46.5599 71.2161C46.2088 70.0961 45.0595 69.4241 43.8943 69.6641C41.5001 70.1761 39.0101 70.1761 36.6159 69.6641C35.4666 69.4081 34.3174 70.0801 33.9503 71.2161C33.5353 72.5441 34.3813 73.9201 35.738 74.1601C38.7228 74.6721 41.7714 74.6721 44.7563 74.1601H44.7722Z" fill="white" stroke="black" stroke-width="0.75" stroke-miterlimit="10" stroke-linecap="round"/>
        <path d="M37.1427 69.76L36.6638 74.288" stroke="black" stroke-width="0.75" stroke-miterlimit="10" stroke-linecap="round"/>
        <path d="M40.271 70.0481V74.5441" stroke="black" stroke-width="0.75" stroke-miterlimit="10" stroke-linecap="round"/>
        <path d="M43.3835 69.76L43.8943 74.288" stroke="black" stroke-width="0.75" stroke-miterlimit="10" stroke-linecap="round"/>
    </g>
</svg>
