<?xml version="1.0" encoding="UTF-8"?>
<svg id="Calque_1" data-name="Calque 1" xmlns="http://www.w3.org/2000/svg" viewBox="0 0 400 600">
  <defs>
    <style>
      .cls-1 {
        fill: #e5cf63;
      }

      .cls-2, .cls-3 {
        fill: #232634;
      }

      .cls-2, .cls-4, .cls-5, .cls-6, .cls-7, .cls-8, .cls-9, .cls-10, .cls-11, .cls-12, .cls-13, .cls-14, .cls-15 {
        stroke: #232634;
      }

      .cls-2, .cls-4, .cls-5, .cls-6, .cls-7, .cls-16, .cls-9, .cls-10, .cls-11, .cls-17, .cls-18, .cls-12, .cls-14 {
        stroke-linecap: round;
      }

      .cls-2, .cls-5, .cls-7, .cls-11 {
        stroke-width: .75px;
      }

      .cls-2, .cls-5, .cls-16, .cls-9, .cls-10, .cls-11, .cls-17, .cls-18 {
        stroke-linejoin: round;
      }

      .cls-19 {
        fill: #af9514;
      }

      .cls-20 {
        fill: #f0f2f8;
      }

      .cls-21 {
        stroke: #f0f2f8;
      }

      .cls-21, .cls-4, .cls-6, .cls-7, .cls-8, .cls-22, .cls-23, .cls-12, .cls-13, .cls-14, .cls-15 {
        stroke-miterlimit: 10;
      }

      .cls-21, .cls-5, .cls-6, .cls-7, .cls-23, .cls-12, .cls-13, .cls-15 {
        fill: none;
      }

      .cls-24 {
        fill: #3e18c9;
      }

      .cls-4, .cls-8, .cls-9, .cls-10, .cls-11, .cls-25, .cls-14 {
        fill: #fff;
      }

      .cls-26 {
        fill: #ad8631;
      }

      .cls-6, .cls-14 {
        stroke-width: .81px;
      }

      .cls-27 {
        fill: #006fff;
      }

      .cls-28 {
        fill: #f7500f;
      }

      .cls-22, .cls-18 {
        fill: #f5d5e1;
        stroke: #f5d5e1;
      }

      .cls-16 {
        fill: #d0add6;
        stroke: #d0add6;
      }

      .cls-29 {
        letter-spacing: 0em;
      }

      .cls-30 {
        fill: #f0dc50;
      }

      .cls-10 {
        stroke-width: .76px;
      }

      .cls-17 {
        fill: #eae9e3;
        stroke: #eae9e3;
      }

      .cls-31 {
        fill: #b1a16e;
      }

      .cls-32 {
        fill: #79e2db;
      }

      .cls-33 {
        fill: #683021;
      }

      .cls-23 {
        stroke: #006fff;
      }

      .cls-34 {
        fill: #aa3922;
      }

      .cls-35 {
        fill: #c6c3b5;
      }

      .cls-36 {
        fill: #8fadf9;
      }

      .cls-37 {
        fill: #ecd5ca;
      }

      .cls-38 {
        letter-spacing: -.07em;
      }

      .cls-39 {
        letter-spacing: -.02em;
      }

      .cls-40 {
        letter-spacing: -.02em;
      }

      .cls-41 {
        letter-spacing: -.02em;
      }

      .cls-42 {
        letter-spacing: -.01em;
      }

      .cls-43 {
        letter-spacing: -.06em;
      }

      .cls-44 {
        letter-spacing: -.04em;
      }

      .cls-45 {
        letter-spacing: 0em;
      }

      .cls-46 {
        letter-spacing: 0em;
      }

      .cls-47 {
        fill: #614427;
      }

      .cls-48 {
        fill: #212636;
      }

      .cls-13 {
        stroke-width: .8px;
      }

      .cls-25 {
        font-family: Nunito-Bold, Nunito;
        font-size: 12px;
        font-weight: 700;
      }
    </style>
  </defs>
  <g>
    <g>
      <g>
        <g>
          <path class="cls-27" d="M265.31,288.78c-.96-.23-1.96-.07-2.8.45-.84.52-1.43,1.33-1.67,2.29-.23.97-.05,1.94.42,2.74-.81.52-1.39,1.31-1.61,2.26-.23.94-.07,1.91.42,2.74-.81.52-1.39,1.31-1.61,2.26-.23.94-.07,1.91.42,2.74-.81.52-1.39,1.31-1.61,2.26-.23.97-.05,1.94.42,2.74-.81.52-1.39,1.31-1.61,2.26-.23.94-.07,1.91.42,2.74-.81.52-1.39,1.31-1.61,2.26-.23.94-.07,1.91.42,2.74-.78.5-1.38,1.28-1.61,2.26-.23.97-.05,1.94.42,2.74-.78.5-1.38,1.28-1.61,2.25-.24.98-.24,2.77-.01,4.25.22,1.42.74,3.19,1.97,3.48.11.03.23.04.34.04,2.11,0,4.5-4.37,4.91-6.04.23-.97.05-1.95-.42-2.75.78-.5,1.38-1.28,1.62-2.25.23-.94.07-1.92-.42-2.75.78-.5,1.38-1.28,1.62-2.25.23-.94.07-1.91-.42-2.75.78-.5,1.38-1.28,1.62-2.25.23-.94.07-1.91-.42-2.74.81-.52,1.39-1.31,1.61-2.26.23-.94.07-1.91-.42-2.74.81-.52,1.39-1.31,1.61-2.26.23-.94.07-1.91-.42-2.74.81-.52,1.39-1.31,1.61-2.26.23-.94.07-1.91-.42-2.74.81-.52,1.39-1.31,1.61-2.26.48-1.99-.75-3.99-2.74-4.47Z"/>
          <path class="cls-27" d="M322.25,303.54c-.52-.84-1.33-1.43-2.29-1.67-1.99-.48-3.99.75-4.47,2.74-.23.94-.07,1.91.42,2.74-.78.5-1.38,1.28-1.61,2.25-.23.97-.05,1.94.42,2.74-.78.5-1.38,1.28-1.61,2.26-.23.94-.07,1.91.42,2.74-.81.52-1.39,1.31-1.61,2.26-.23.94-.07,1.91.42,2.74-.81.52-1.39,1.31-1.61,2.26-.23.97-.05,1.94.42,2.74-.81.52-1.39,1.31-1.61,2.26-.23.94-.07,1.91.42,2.74-.81.52-1.39,1.31-1.61,2.26-.23.94-.07,1.91.42,2.74-.81.52-1.39,1.31-1.61,2.26-.42,1.76-.23,7.2,1.96,7.73.12.03.24.04.35.04,1.12,0,2.22-1.19,2.98-2.25.87-1.21,1.68-2.81,1.91-3.79.23-.94.07-1.91-.42-2.74.81-.52,1.39-1.31,1.61-2.26.23-.94.07-1.91-.42-2.74.81-.52,1.39-1.31,1.61-2.26.23-.97.05-1.94-.42-2.74.81-.52,1.39-1.31,1.61-2.26.23-.94.07-1.91-.42-2.74.81-.52,1.39-1.31,1.61-2.26.23-.94.07-1.91-.42-2.74.81-.52,1.39-1.31,1.61-2.26.23-.97.05-1.95-.42-2.75.78-.5,1.39-1.28,1.62-2.25.23-.97.05-1.95-.42-2.75.78-.5,1.39-1.28,1.62-2.25.23-.96.07-1.96-.45-2.8Z"/>
        </g>
        <g>
          <path class="cls-47" d="M293.71,343.11c-2.03-.94-3.11-3.18-2.59-5.35l.46-1.93-15.88-3.8-.46,1.93c-.52,2.17-2.5,3.68-4.73,3.6,0,0,1.44,14.49,8.13,16.14,3.5.87,14.35-5.1,15.06-10.59Z"/>
          <path class="cls-28" d="M314.37,359.55c.12-4.1-2.22-7.87-5.94-9.6l-14.72-6.84c-2.59,2.61-7.06,9.19-14.58,7.24-6.51-1.69-8.62-12.79-8.62-12.79l-16.22-.57c-4.1-.14-4.42,3.19-4.42-2.22l-8.61,12.7,72.94,17.63.16-5.55Z"/>
        </g>
        <circle class="cls-3" cx="301.21" cy="314.29" r="2.49"/>
        <circle class="cls-3" cx="275.32" cy="308.09" r="2.49"/>
        <path class="cls-7" d="M286.27,314.6l-.65,2.65c-.06.25.09.5.34.57l1.13.3"/>
        <path class="cls-47" d="M319.01,312.6l1.48-6.18c3.16-13.19-5.05-26.57-18.24-29.73l-9.21-2.2c-13.19-3.16-26.57,5.05-29.73,18.24l-1.48,6.19s-.03-.02-.04-.02c-2.23-.53-4.47.84-5,3.07-.53,2.23.84,4.47,3.07,5,.02,0,.03,0,.05,0h0c-3.16,13.2,5.05,26.58,18.24,29.74l9.21,2.2c13.19,3.16,26.57-5.05,29.73-18.24h0c2.23.53,4.47-.84,5-3.07.53-2.23-.84-4.47-3.07-5Z"/>
        <circle class="cls-3" cx="301.21" cy="316.16" r="2.49"/>
        <circle class="cls-3" cx="275.32" cy="309.96" r="2.49"/>
        <path class="cls-27" d="M323.03,301.5c1.67-14.68-8.53-28.84-24.15-32.58-16.72-4-33.32,5.44-37.23,21.11-.2.79-.39,1.57-.57,2.35,0,0-2.98,10.96,7.51,12.55,1.66.25,5.33-1.88,6.38-6.39,0,0-4.44,7.55,9.16,10.28,0,0,8.6-.8,8.18-4.88,0,0,0,7.94,9.94,9.45,0,0,8.51.43,7.69-4.83,0,0-1.34,3.4,2.43,7.33,0,0,6.89,5.98,10.13-11.46.17-.92.36-1.9.54-2.92Z"/>
        <path class="cls-7" d="M285.3,323.16s3.54,1.43,4.18-1.26"/>
        <line class="cls-7" x1="287.42" y1="314.29" x2="286.65" y2="317.5"/>
      </g>
      <g>
        <rect class="cls-47" x="241.6" y="306.04" width="3.51" height="14.04" rx="1.76" ry="1.76" transform="translate(-73.24 74.33) rotate(-15.12)"/>
        <rect class="cls-47" x="244.37" y="306.2" width="3.51" height="14.04" rx="1.76" ry="1.76" transform="translate(55.64 -36.64) rotate(9.59)"/>
        <path class="cls-47" d="M241.5,314.54h3.51c2.91,0,5.27,2.36,5.27,5.27h0c0,2.91-2.36,5.27-5.27,5.27h0c-2.91,0-5.27-2.36-5.27-5.27v-3.51c0-.97.79-1.76,1.76-1.76Z" transform="translate(-40.17 35.24) rotate(-7.61)"/>
        <path class="cls-47" d="M250.87,315.04h0c.59.76-1.14,7.19-1.91,7.78l-2.58-2.11c-.76.59-1.87.45-2.46-.32h0c-.59-.76-.45-1.87.32-2.46l3.56-3.81c.76-.59,2.48.15,3.07.92Z"/>
      </g>
      <path class="cls-28" d="M247.95,347.59h-5.99c-1.25,0-2.27-1.02-2.27-2.27l1.04-16.84c0-2.04,1.67-3.71,3.71-3.71h1.53c2.04,0,3.71,1.67,3.71,3.71l.54,16.84c0,1.25-1.02,2.27-2.27,2.27Z"/>
    </g>
    <g>
      <g>
        <path class="cls-9" d="M312.01,248.87c1.07-4.22-1.55-8.5-5.83-9.45-3.86-.85-7.86,1.46-9.04,5.23-.69,2.22-.34,4.48.75,6.3,1.07,1.78,1.49,3.87.98,5.88l-.35,1.38,5.91,1.5.35-1.37c.49-1.95,1.73-3.64,3.49-4.62,1.8-1,3.2-2.71,3.75-4.86Z"/>
        <path class="cls-9" d="M298.22,257.56h6.09v2.76c0,.91-.74,1.65-1.65,1.65h-2.8c-.91,0-1.65-.74-1.65-1.65v-2.76h0Z" transform="translate(73.05 -66.05) rotate(14.22)"/>
        <line class="cls-9" x1="298.86" y1="256.88" x2="304.6" y2="259.04"/>
        <line class="cls-9" x1="298.35" y1="258.88" x2="304.09" y2="261.04"/>
      </g>
      <line class="cls-9" x1="307.62" y1="236.02" x2="308.44" y2="232.24"/>
      <line class="cls-9" x1="315.4" y1="240.89" x2="317.26" y2="239.63"/>
      <line class="cls-9" x1="299.1" y1="237.53" x2="297.91" y2="235.63"/>
      <line class="cls-9" x1="290.23" y1="240.73" x2="293.86" y2="242.05"/>
      <line class="cls-9" x1="314.67" y1="250.85" x2="318.31" y2="252.18"/>
    </g>
  </g>
  <g>
    <path class="cls-23" d="M129.41,321.75c-39.25-21.91-65.8-63.85-65.8-112,0-70.78,57.38-128.17,128.17-128.17"/>
    <polygon class="cls-27" points="130.48 316.62 135.77 325.07 125.8 325.43 130.48 316.62"/>
  </g>
  <g>
    <path class="cls-23" d="M99.84,506.61c6.33,13.91,15.19,26.78,26.37,37.84"/>
    <polygon class="cls-27" points="95.89 509.9 97.05 500 105.04 505.95 95.89 509.9"/>
  </g>
  <g>
    <path class="cls-23" d="M220.38,325.27c-44.93-1.34-89.24,21.04-113.94,62.36"/>
    <polygon class="cls-27" points="219.18 320.26 227.55 325.68 218.67 330.22 219.18 320.26"/>
  </g>
  <g>
    <g>
      <g>
        <path class="cls-30" d="M114.68,425.44l-.73-6.47c-1.56-13.81-14.13-23.83-27.93-22.28l-9.64,1.09c-13.81,1.56-23.83,14.13-22.28,27.93l.73,6.48s-.03,0-.05,0c-2.33.26-4.01,2.37-3.75,4.7s2.37,4.01,4.7,3.75c.02,0,.03-.01.05-.02h0c1.56,13.82,14.13,23.84,27.93,22.29l9.64-1.09c13.81-1.56,23.83-14.13,22.28-27.93h0c2.33-.26,4.01-2.37,3.75-4.7-.26-2.33-2.37-4.01-4.7-3.75Z"/>
        <circle class="cls-3" cx="100.16" cy="432.33" r="2.55"/>
        <circle class="cls-3" cx="73.05" cy="435.38" r="2.55"/>
        <path class="cls-6" d="M84.81,435.49l-1.9,5.26c-.18.5.07,1.05.57,1.24l2.24.85"/>
        <path class="cls-17" d="M114.42,410.41c-3.37-13.49-18.02-22.62-34.37-20.78-17.5,1.97-30.32,15.76-28.77,30.86.08.76.16,1.52.24,2.26,0,0,.84,10.64,11.51,8.59,1.69-.32,1.23-1.68.18-3.11,2.25,1.63,5.5,3.02,9.73,2.32,0,0-5.4-2.62-5.92-6.94,0,0,3.05,7.77,17.09,5.7,0,0-5.1-1.37-6.88-4.83,0,0,11.05,5.18,21.16,3.24,0,0-5.12-.89-7.71-5.25,0,0,12.05,5.37,18.33,4.13,0,0,8.68,3,5.89-13.44-.15-.87-.3-1.79-.47-2.75Z"/>
        <g>
          <path class="cls-30" d="M101.13,465.21c-2.28-.2-4.1-1.98-4.36-4.25l-.23-2.02-16.62,1.87.23,2.02c.26,2.27-1.13,4.41-3.3,5.11,0,0,11.72,2.49,24.28-2.73Z"/>
          <path class="cls-27" d="M118.51,475.15c-1.32-3.99,5.52-6.28,1.33-6.65l-18.72-3.29,4.22.37s-5.38,4.92-16.45,6.17c0,0-12.47.53-16.71-2.3l4.66-1.5-15.82,5.1c-4,1.29-6.84,4.83-7.24,9.01l-.54,5.66,67.04-7.17-1.78-5.4Z"/>
          <path class="cls-27" d="M88.9,471.75c11.07-1.25,16.45-6.17,16.45-6.17l-4.22-.37c-12.55,5.22-24.28,2.73-24.28,2.73l-4.66,1.5c4.24,2.83,16.71,2.3,16.71,2.3Z"/>
        </g>
        <path class="cls-6" d="M92.1,446.49h0c-3.71,1.25-7.64,1.69-11.53,1.3h0"/>
      </g>
      <g>
        <g>
          <circle class="cls-15" cx="71.21" cy="436.27" r="8.34"/>
          <circle class="cls-15" cx="98.31" cy="433.22" r="8.34"/>
        </g>
        <line class="cls-15" x1="79.6" y1="435.39" x2="89.93" y2="434.23"/>
      </g>
    </g>
    <g>
      <g>
        <g>
          <path class="cls-8" d="M119.14,396.64l1.21-6.21c-.65-.96-1.02-1.51-1.67-2.47l-2.51-.49c-.96.65-1.51,1.02-2.47,1.67l-1.21,6.21c-.07.37.17.72.54.79l5.31,1.03c.37.07.72-.17.79-.54Z"/>
          <rect class="cls-8" x="111.28" y="392.53" width="9.11" height="6.77" rx=".68" ry=".68" transform="translate(526.58 357.88) rotate(101.02)"/>
        </g>
        <rect class="cls-8" x="97.06" y="405.8" width="31.64" height="11.21" rx="1.63" ry="1.63" transform="translate(538.27 379.23) rotate(101.02)"/>
        <rect class="cls-8" x="100.32" y="404.43" width="24.62" height="15.81" rx="1.7" ry="1.7" transform="translate(538.89 380.58) rotate(101.02)"/>
        <rect class="cls-8" x="130.61" y="416.82" width="27.17" height="5.92" rx="1.09" ry="1.09" transform="translate(583.79 358.47) rotate(101.02)"/>
        <line class="cls-8" x1="117.48" y1="387.73" x2="118.56" y2="382.22"/>
        <path class="cls-8" d="M119.03,420.83l2.17-.64c1.31-.39,2.72-.28,3.97.29l9.22,4.26c.8.37,1.25,1.24,1.08,2.11h0c-.2,1.04.48,2.05,1.52,2.25l2.29.44,3.5-18-2.16-.42c-1.04-.2-2.05.48-2.25,1.52l-.4,2.05c-.24,1.25-1.61,1.92-2.74,1.35l-5.59-2.79c-.77-.39-1.19-1.24-1.03-2.08l.08-.41c.2-1.04-.48-2.05-1.52-2.25l-5.54-1.08-2.61,13.4Z"/>
      </g>
      <path class="cls-30" d="M120.41,428.7s-.63-4.01.09-7.73c.04-.19,1.15-.31,1.15-.37.2-2.84,1.32-5.42,2.21-6.19,1.61-1.4,8.54,2.1,8.54,2.1,0,0,2.56.98,2.03,3.8-.65,3.47-3.01,11.02-3.01,11.02"/>
    </g>
    <path class="cls-27" d="M102.21,465.13s8,1.14,11.69-13.78c2.77-11.2,4.47-18.82,5.29-22.62.34-1.57,1.88-2.57,3.45-2.25l8.05,1.65c1.51.31,2.52,1.72,2.32,3.25-1.27,9.72-6.61,42.42-20.91,44.39"/>
  </g>
  <g>
    <path class="cls-23" d="M275.21,378c29.56,16.89,49.49,48.72,49.49,85.2,0,48.44-35.12,88.67-81.29,96.62-3.15.54-6.35.93-9.59,1.17"/>
    <polygon class="cls-27" points="235.07 555.91 226.65 561.25 235.48 565.87 235.07 555.91"/>
  </g>
  <g>
    <path class="cls-23" d="M331.49,213.94c36.73-45.45,29.67-112.06-15.78-148.8-16.7-13.5-36.26-21.08-56.15-23.02"/>
    <polygon class="cls-27" points="261.37 37.29 252.41 41.67 260.68 47.24 261.37 37.29"/>
  </g>
  <g>
    <rect class="cls-27" x="29.55" y="236.85" width="87" height="28" rx="3" ry="3" transform="translate(-28.27 10.03) rotate(-6.58)"/>
    <text class="cls-25" transform="translate(48.01 257.92) rotate(-6.58)"><tspan class="cls-43" x="0" y="0">F</tspan><tspan x="6.08" y="0">AB </tspan><tspan class="cls-42" x="26.52" y="0">L</tspan><tspan x="33.08" y="0">AB</tspan></text>
  </g>
  <g>
    <rect class="cls-27" x="82.03" y="67.66" width="97" height="28" rx="3" ry="3" transform="translate(18.01 -23.44) rotate(11.02)"/>
    <text class="cls-25" transform="translate(91.76 78.35) rotate(11.02)"><tspan x="0" y="0">OPEN </tspan><tspan class="cls-45" x="36.64" y="0">B</tspan><tspan x="44.83" y="0">ADGE</tspan></text>
  </g>
  <g>
    <rect class="cls-27" x="214.18" y="410.72" width="140" height="28" rx="3" ry="3" transform="translate(-53.71 41.35) rotate(-7.61)"/>
    <text class="cls-25" transform="translate(225.07 436.8) rotate(-7.61)"><tspan class="cls-39" x="0" y="0">C</tspan><tspan x="7.88" y="0">O</tspan><tspan class="cls-41" x="17.3" y="0">-</tspan><tspan x="22.3" y="0">APPRENTIS</tspan><tspan class="cls-46" x="89.65" y="0">S</tspan><tspan class="cls-42" x="97.16" y="0">A</tspan><tspan x="105.91" y="0">GE</tspan></text>
  </g>
  <g>
    <rect class="cls-27" x="296.11" y="173.2" width="89.43" height="28" rx="3" ry="3" transform="translate(21.82 -35.15) rotate(6.1)"/>
    <text class="cls-25" transform="translate(304.25 187.47) rotate(6.1)"><tspan class="cls-46" x="0" y="0">A</tspan><tspan x="8.87" y="0">U</tspan><tspan class="cls-44" x="17.72" y="0">T</tspan><tspan class="cls-29" x="24.66" y="0">ONOMIE</tspan></text>
  </g>
  <g>
    <g>
      <path class="cls-36" d="M285.87,546.01l.52-5.59c.39-4.12,3.19-7.62,7.13-8.89l15.6-5.05c2.15-.69,3.51-2.81,3.25-5.05l-.23-2,16.39-1.86.23,2c.25,2.24,2.05,3.99,4.3,4.19l16.33,1.42c4.13.36,7.64,3.14,8.94,7.07l1.77,5.33"/>
      <g>
        <rect class="cls-1" x="299.42" y="532.97" width="46.15" height="8.9" transform="translate(-58.65 39.87) rotate(-6.49)"/>
        <polygon class="cls-1" points="299.06 535.61 297.25 530.2 303.49 528.3 306.77 535.52 299.06 535.61"/>
        <polygon class="cls-1" points="344.92 530.42 345.47 524.75 338.96 524.3 337.39 532.07 344.92 530.42"/>
      </g>
      <path class="cls-36" d="M346.38,484.4l-.37-3.25c-1.74-15.34-15.72-26.46-31.06-24.72l-3.24.37c-15.34,1.74-26.46,15.72-24.72,31.06l.37,3.26s-.03,0-.05,0c-2.3.26-3.95,2.34-3.69,4.64s2.34,3.95,4.64,3.69c.02,0,.03-.01.05-.02h0c1.55,13.63,13.96,23.5,27.57,21.95l9.5-1.08c13.62-1.55,23.49-13.96,21.94-27.57h0c2.3-.26,3.95-2.34,3.69-4.64s-2.34-3.95-4.64-3.69Z"/>
      <path class="cls-5" d="M315.88,495.4s.03,1.57.11,4.38l3.25-.37"/>
      <g>
        <g>
          <path class="cls-10" d="M299.88,494.55h6.43c.59,0,1.07.48,1.07,1.07h0c0,1.96-1.59,3.55-3.55,3.55h-1.48c-1.96,0-3.55-1.59-3.55-3.55h0c0-.59.48-1.07,1.07-1.07Z" transform="translate(-54.19 37.42) rotate(-6.49)"/>
          <path class="cls-3" d="M305.49,494.6c.16,1.45-.89,2.76-2.34,2.92s-2.78-.87-2.94-2.32"/>
        </g>
        <g>
          <path class="cls-10" d="M326.37,491.75h8.57v2.14c0,1.37-1.11,2.48-2.48,2.48h-3.62c-1.37,0-2.48-1.11-2.48-2.48v-2.14h0Z" transform="translate(-53.7 40.52) rotate(-6.49)"/>
          <path class="cls-3" d="M333.05,491.8c.16,1.45-.89,2.76-2.34,2.92s-2.78-.87-2.94-2.32"/>
        </g>
      </g>
      <g>
        <path class="cls-14" d="M324.45,508.08h0c1.55-.45,2.34-2.17,1.69-3.64h0c-.56-1.26-1.98-1.88-3.29-1.44h0c-2.71.92-5.58,1.24-8.43.96h0c-1.37-.14-2.61.79-2.88,2.14h0c-.31,1.58.85,3.08,2.46,3.17h0c3.52.2,7.06-.2,10.45-1.19Z"/>
        <line class="cls-14" x1="315.03" y1="504.01" x2="315.07" y2="509.3"/>
        <line class="cls-14" x1="318.68" y1="503.93" x2="319.27" y2="509.12"/>
        <line class="cls-14" x1="322.26" y1="503.18" x2="323.45" y2="508.35"/>
      </g>
      <rect class="cls-3" x="323.51" y="485.65" width="14.68" height="13.31" rx="3.84" ry="3.84" transform="translate(-53.5 40.53) rotate(-6.49)"/>
      <polyline class="cls-5" points="318.93 483.49 330.85 492.31 346.65 501.9"/>
      <g>
        <path class="cls-28" d="M286.96,485.17l58.74-6.68s-2.96-29.78-33.43-26.32-25.31,33-25.31,33Z"/>
        <rect class="cls-28" x="283.9" y="477.04" width="64.45" height="8.7" rx="1.31" ry="1.31" transform="translate(-52.36 38.79) rotate(-6.49)"/>
      </g>
    </g>
    <g>
      <g>
        <path class="cls-9" d="M273.46,489.61c-1.21,1.47-2.13,3.13-2.75,4.9-.21.6-.89.89-1.48.67l-1.94-.72c-.57-.21-.89-.84-.69-1.41.74-2.11,1.82-4.09,3.21-5.87l.57,1.11,1.39-.21.28,1.39,1.41.14Z"/>
        <g>
          <path class="cls-12" d="M268.03,494.73s-4.61,11.25,4.06,20.33"/>
          <path class="cls-4" d="M278.38,511.87h2.5c1.41,0,2.55,1.14,2.55,2.55v15.58c0,1.41-1.14,2.55-2.55,2.55h-2.5c-4.27,0-7.73-3.46-7.73-7.73v-5.21c0-4.27,3.46-7.73,7.73-7.73Z" transform="translate(-281.48 328.53) rotate(-42.93)"/>
        </g>
      </g>
      <g>
        <path class="cls-9" d="M299.58,484.71c-4.1-3.38-9.5-5.17-15.2-4.53-3.31.38-6.32,1.55-8.91,3.28l.19,1.21,1.39.23-.17,1.41.86.89s4.48-2.36,7.14-2.66c4.48-.51,8.73.89,11.95,3.56.49.4,1.22.3,1.61-.2l1.29-1.62c.38-.48.33-1.18-.14-1.56Z"/>
        <g>
          <path class="cls-12" d="M299.39,487.08s9.77,7.24,7.06,19.49"/>
          <path class="cls-4" d="M307.26,504.9h2.5c1.41,0,2.55,1.14,2.55,2.55v15.58c0,1.41-1.14,2.55-2.55,2.55h-2.5c-4.27,0-7.73-3.46-7.73-7.73v-5.21c0-4.27,3.46-7.73,7.73-7.73Z" transform="translate(500.64 1081.93) rotate(-168.27)"/>
        </g>
      </g>
    </g>
    <g>
      <path class="cls-36" d="M284.52,524.78c2.47,3.05,2.91,6.8.98,8.36-1.93,1.56-5.5.35-7.97-2.7-2.47-3.05-1.74-5.1.19-6.67,1.93-1.56,4.33-2.05,6.8,1.01Z"/>
      <polygon class="cls-36" points="278.97 531.91 285.39 537.06 289.52 533.98 286.13 527.49 278.97 531.91"/>
    </g>
    <g>
      <path class="cls-36" d="M311.76,519.35c1.23,3.84.27,7.58-2.15,8.36s-5.39-1.7-6.63-5.53.22-5.53,2.65-6.31c2.42-.78,4.9-.35,6.13,3.48Z"/>
      <polygon class="cls-36" points="303.81 524.11 308.05 531.42 313.14 529.99 312.29 522.53 303.81 524.11"/>
    </g>
    <path class="cls-1" d="M282.42,536.57l6.29-5.34s7.25,5.78,12.31,14.9c.48.87.08,1.96-.86,2.28l-9.98,3.42c-.69.24-1.45-.02-1.84-.64-1.39-2.18-4.52-7.64-5.92-14.62Z"/>
    <path class="cls-1" d="M307.65,530.37l4.02-3.42c.78-.66,1.93-.65,2.68.04,2.28,2.07,7,6.79,10.69,13.24.63,1.11.1,2.53-1.11,2.94l-9.11,3.12c-.9.31-1.88-.04-2.39-.84-1.38-2.22-4.03-7.01-5.46-13.1-.17-.73.1-1.5.67-1.99Z"/>
    <rect class="cls-9" x="269.48" y="482.37" width="8.7" height="8.7" transform="translate(-208.16 204.65) rotate(-30.3)"/>
    <rect class="cls-9" x="271.91" y="481.75" width="3.88" height="10.36" transform="translate(-152.13 125.49) rotate(-20.33)"/>
  </g>
  <g>
    <line class="cls-21" x1="153.8" y1="447.53" x2="230.93" y2="370.4"/>
    <polygon class="cls-20" points="158.36 450.03 148.73 452.61 151.31 442.98 158.36 450.03"/>
    <polygon class="cls-20" points="233.43 374.96 236.01 365.33 226.38 367.91 233.43 374.96"/>
  </g>
  <g>
    <line class="cls-21" x1="151.68" y1="480.68" x2="255.78" y2="513.25"/>
    <polygon class="cls-20" points="151.58 485.88 144.83 478.54 154.56 476.36 151.58 485.88"/>
    <polygon class="cls-20" points="252.9 517.57 262.63 515.39 255.88 508.06 252.9 517.57"/>
  </g>
  <g>
    <line class="cls-21" x1="126.43" y1="219.87" x2="151.24" y2="232.55"/>
    <polygon class="cls-20" points="125.46 224.98 120.04 216.61 130 216.1 125.46 224.98"/>
    <polygon class="cls-20" points="147.68 236.33 157.63 235.81 152.21 227.45 147.68 236.33"/>
  </g>
  <g>
    <line class="cls-21" x1="148.61" y1="132.11" x2="208.38" y2="109.67"/>
    <polygon class="cls-20" points="151.73 136.26 141.89 134.63 148.22 126.93 151.73 136.26"/>
    <polygon class="cls-20" points="208.77 114.85 215.1 107.15 205.26 105.51 208.77 114.85"/>
  </g>
  <g>
    <g>
      <rect class="cls-15" x="232.61" y="100.36" width="6.36" height="24.92" rx="1.44" ry="1.44" transform="translate(439.42 276.72) rotate(-166.74)"/>
      <polygon class="cls-15" points="240.22 89.62 237.66 100.46 239.93 101 242.49 90.15 243.44 90.37 243.73 85.63 241.12 85.02 239.27 89.39 240.22 89.62"/>
      <g>
        <line class="cls-15" x1="234.51" y1="123.19" x2="239.31" y2="102.82"/>
        <line class="cls-15" x1="232.36" y1="122.68" x2="237.16" y2="102.31"/>
      </g>
    </g>
    <g>
      <rect class="cls-18" x="264.12" y="100.85" width="49.59" height="16.86" transform="translate(20.83 -44.16) rotate(9.07)"/>
      <path class="cls-31" d="M249.1,126.96l2.01-5.26c1.48-3.88,5.13-6.51,9.29-6.68l16.43-.68c2.26-.09,4.15-1.77,4.5-4.01l.32-1.99,16.34,2.61-.32,1.99c-.36,2.24.91,4.41,3.03,5.21l15.41,5.76c3.89,1.46,6.54,5.09,6.75,9.24l.27,5.62"/>
      <path class="cls-32" d="M323.81,85.32l1.02-6.36c2.17-13.58-7.17-26.46-20.75-28.63l-9.48-1.51c-13.58-2.17-26.46,7.17-28.63,20.75l-1.02,6.37s-.03-.01-.05-.02c-2.29-.37-4.45,1.2-4.81,3.49s1.2,4.45,3.49,4.81c.02,0,.03,0,.05,0h0c-2.17,13.59,7.17,26.47,20.75,28.64l9.48,1.51c13.58,2.17,26.46-7.17,28.63-20.75h0c2.29.37,4.45-1.2,4.81-3.49.37-2.29-1.2-4.45-3.49-4.81Z"/>
      <circle class="cls-3" cx="305.95" cy="88.42" r="2.53"/>
      <circle class="cls-3" cx="279.3" cy="84.16" r="2.53"/>
      <path class="cls-7" d="M290.87,89.9l-.45,2.73c-.04.26.13.5.39.55l1.17.21"/>
      <path class="cls-16" d="M327.37,72c.39-13.96-11.15-26.69-27.23-29.26-17.21-2.75-33.11,7.19-35.66,22.22-.13.76-.25,1.51-.37,2.25,0,0-2.03,10.53,8.68,11.38,1.69.13,1.62-1.3,1-2.96,1.71,2.17,4.44,4.38,8.66,4.83,0,0-4.45-3.97-3.79-8.3,0,0,.83,8.33,14.78,10.07,0,0-4.5-2.68-5.28-6.51,0,0,9.15,7.96,19.31,8.77,0,0-4.65-2.22-5.95-7.14,0,0,10.05,8.41,16.37,8.87,0,0,7.47,5.22,9.2-11.44.09-.88.19-1.81.29-2.79Z"/>
      <path class="cls-18" d="M263.98,68.02l-6.9,43.25c-.2,1.25.65,2.42,1.89,2.61l4.65.74c1.25.2,2.42-.65,2.61-1.89l7.07-44.32"/>
      <path class="cls-18" d="M317.48,76.56l-6.92,43.38c-.19,1.17.61,2.27,1.78,2.46l4.92.79c1.17.19,2.27-.61,2.46-1.78l7.09-44.45"/>
      <path class="cls-31" d="M323.81,85.32l1.02-6.36c2.17-13.58-7.17-26.46-20.75-28.63l-9.48-1.51c-13.58-2.17-26.46,7.17-28.63,20.75l-1.02,6.37s-.03-.01-.05-.02c-2.29-.37-4.45,1.2-4.81,3.49s1.2,4.45,3.49,4.81c.02,0,.03,0,.05,0h0c-2.17,13.59,7.17,26.47,20.75,28.64l9.48,1.51c13.58,2.17,26.46-7.17,28.63-20.75h0c2.29.37,4.45-1.2,4.81-3.49.37-2.29-1.2-4.45-3.49-4.81Z"/>
      <path class="cls-7" d="M290.87,89.9l-.45,2.73c-.04.26.13.5.39.55l1.17.21"/>
      <path class="cls-18" d="M327.37,72c.39-13.96-11.15-26.69-27.23-29.26-17.21-2.75-33.11,7.19-35.66,22.22-.13.76-.25,1.51-.37,2.25,0,0-2.03,10.53,8.68,11.38,1.69.13,1.62-1.3,1-2.96,1.71,2.17,4.44,4.38,8.66,4.83,0,0-4.45-3.97-3.79-8.3,0,0,.83,8.33,14.78,10.07,0,0-4.5-2.68-5.28-6.51,0,0,9.15,7.96,19.31,8.77,0,0-4.65-2.22-5.95-7.14,0,0,10.05,8.41,16.37,8.87,0,0,7.47,5.22,9.2-11.44.09-.88.19-1.81.29-2.79Z"/>
      <ellipse class="cls-37" cx="274.68" cy="99.23" rx="1.77" ry="2.82" transform="translate(133.41 354.84) rotate(-80.93)"/>
      <ellipse class="cls-37" cx="306.28" cy="104.27" rx="1.77" ry="2.82" transform="translate(155.05 390.3) rotate(-80.93)"/>
      <path class="cls-7" d="M285.2,96.4s9.15,1.85,10.64,1.7"/>
      <path class="cls-7" d="M296.53,96.39s-.78,2.28-.11,3.33"/>
      <g>
        <rect class="cls-27" x="263.65" y="124.05" width="46.31" height="8.93" transform="translate(23.83 -43.59) rotate(9.07)"/>
        <polygon class="cls-27" points="264.65 120.45 264.35 114.74 270.89 114.58 272.12 122.44 264.65 120.45"/>
        <polygon class="cls-27" points="310.37 127.78 312.43 122.44 306.26 120.26 302.64 127.35 310.37 127.78"/>
        <circle class="cls-22" cx="268.31" cy="125.21" r="2.2"/>
        <circle class="cls-22" cx="305.39" cy="131.12" r="2.2"/>
      </g>
      <path class="cls-18" d="M263.98,68.02s-1.83,32.97-3.55,43.78c-.2,1.25.65,2.42,1.89,2.61l4.65.74c1.25.2,2.42-.65,2.61-1.89,1.77-11.08,3.73-44.85,3.73-44.85"/>
      <path class="cls-18" d="M317.48,76.56s-7.88,32.11-9.61,42.95c-.19,1.17.61,2.27,1.78,2.46l4.92.79c1.17.19,2.27-.61,2.46-1.78,1.77-11.11,9.78-44.02,9.78-44.02"/>
      <g>
        <g>
          <ellipse class="cls-3" cx="305.93" cy="88.33" rx="2.41" ry="2.43" transform="translate(170.49 376.51) rotate(-80.93)"/>
          <ellipse class="cls-3" cx="280.91" cy="84.34" rx="2.41" ry="2.43" transform="translate(153.36 348.45) rotate(-80.93)"/>
        </g>
        <g>
          <path class="cls-7" d="M285.69,85.1c.42-2.63-1.37-5.11-4-5.53-2.63-.42-5.11,1.37-5.53,4l-1.79-.29"/>
          <line class="cls-7" x1="274.95" y1="79.72" x2="277.14" y2="81.29"/>
        </g>
        <g>
          <path class="cls-7" d="M301.18,87.57c.42-2.63,2.89-4.42,5.53-4s4.42,2.89,4,5.53l1.79.29"/>
          <line class="cls-7" x1="313.07" y1="85.8" x2="310.49" y2="86.61"/>
        </g>
      </g>
    </g>
    <path class="cls-31" d="M241.01,112.99l-.26-.36c-1.98-2.22-5.54-.56-8.44,1.48l-.23-1.4s-2.6,2.62-3.34,4.59c-1.06,1.23-1.97,2.6-2.69,4.08l-2.42,4.93,8.54-1.43.37-2.67c1.98-.37,4.33-1.22,4.71-1.54,6.5-3.74,3.76-7.67,3.76-7.67Z"/>
    <g>
      <path class="cls-8" d="M344.98,109.13l-1.85-2.46-8.06,6.06s-9.83-7.76-24.57,1.34c-1.75,1.08-2.21,3.43-.97,5.07h0c1.07,1.42,3.02,1.81,4.55.9,4.37-2.59,13.46-6.49,20.66.46l10.24-11.39Z"/>
      <path class="cls-8" d="M338.4,102.74l2.43,1.67-5.71,8.32s8.19,9.48-.27,24.61c-1,1.79-3.33,2.36-5.03,1.19h0c-1.46-1-1.94-2.94-1.1-4.51,2.12-3.95,5.09-11.62.77-18.1-1.09-1.63-.78-3.83.64-5.19l8.27-7.98Z"/>
      <circle class="cls-15" cx="332.86" cy="115.09" r="1.82"/>
    </g>
    <path class="cls-31" d="M330.06,127.2l.36-.26c2.57-1.49,5.44,1.19,7.56,4.03l.66-1.26s1.66,3.3,1.74,5.4c.63,1.5,1.06,3.09,1.29,4.71l.77,5.44-7.67-4.02.48-2.66c-1.77-.97-3.73-2.51-4-2.93-5.02-5.58-1.18-8.45-1.18-8.45Z"/>
  </g>
  <g>
    <g>
      <g>
        <path class="cls-33" d="M115.89,182.79c-2.29.1-4.34-1.44-4.89-3.67l-.49-1.98-16.3,4.02.49,1.98c.55,2.23-.55,4.54-2.62,5.52,0,0,11.99.96,23.81-5.87Z"/>
        <path class="cls-19" d="M142.5,188.06c-1.83-3.8-5.74-6.14-9.95-5.97l-16.67.7,4.25-.18s-4.72,5.6-15.58,8.27c0,0-12.35,2.14-16.93-.12l4.45-2.1-15.08,7.13c-3.81,1.8-6.18,5.7-6.04,9.91l.2,5.71,73.82-18.2-2.48-5.15Z"/>
        <path class="cls-19" d="M104.56,190.88c10.86-2.68,15.58-8.27,15.58-8.27l-4.25.18c-11.82,6.83-23.81,5.87-23.81,5.87l-4.45,2.1c4.58,2.27,16.93.12,16.93.12Z"/>
      </g>
      <path class="cls-33" d="M124.22,141.44l-.8-3.23c-3.76-15.26-19.32-24.66-34.57-20.9l-3.22.79c-15.26,3.76-24.66,19.32-20.9,34.57l.8,3.24s-.03,0-.05,0c-2.29.56-3.68,2.87-3.12,5.16.56,2.29,2.87,3.68,5.16,3.12.02,0,.03-.02.05-.02h0c3.34,13.55,17.15,21.9,30.69,18.56l9.45-2.33c13.54-3.34,21.89-17.15,18.55-30.69h0c2.29-.56,3.68-2.87,3.12-5.16s-2.87-3.68-5.16-3.12Z"/>
      <circle class="cls-3" cx="108.76" cy="151.39" r="2.56"/>
      <circle class="cls-3" cx="82.18" cy="157.94" r="2.56"/>
      <path class="cls-5" d="M96.43,155.27s-.33,1.56-.88,5.66l3.23-.8"/>
      <path class="cls-2" d="M90.41,164.44l14.39-3.55-.88,1.62c-.42.77-1.38,1.06-2.15.66h0c-.66-.34-1.46-.19-1.95.36l-.6.68c-.44.5-1.15.68-1.78.44l-1.13-.43c-.67-.25-1.42-.04-1.85.53l-.29.38c-.52.68-1.47.83-2.17.36l-1.59-1.06Z"/>
    </g>
    <g>
      <g>
        <rect class="cls-8" x="58.15" y="187.8" width="6.36" height="24.92" rx="1.44" ry="1.44" transform="translate(162.97 383.38) rotate(167.99)"/>
        <path class="cls-8" d="M57.71,176.9l2.32,10.9-2.28.49-2.32-10.9.26-4.33c.01-.17.25-.22.32-.06l1.7,3.91Z"/>
      </g>
      <path class="cls-15" d="M63.77,212.47l.67,3.63s.12,3.36,3.7,3.03c3.58-.33,3.4,4.45,3.4,4.45"/>
    </g>
    <path class="cls-33" d="M66.64,200.18l-.33-.3c-2.38-1.78-5.54.55-7.97,3.13l-.51-1.33s-2.03,3.08-2.35,5.16c-.8,1.42-1.41,2.94-1.82,4.53l-1.39,5.31,8.08-3.11-.17-2.69c1.87-.75,4-2.06,4.31-2.45,5.63-4.96,2.15-8.26,2.15-8.26Z"/>
    <line class="cls-8" x1="126.74" y1="183.77" x2="127.76" y2="178.69"/>
    <line class="cls-8" x1="125.83" y1="183.52" x2="126.27" y2="178.37"/>
    <line class="cls-8" x1="124.81" y1="183.52" x2="124.39" y2="178.36"/>
    <path class="cls-8" d="M125.28,199.16s-2.74-8.69-1.05-15.46l3.2.32s-1.24,7.66.98,14.28"/>
    <path class="cls-33" d="M119.27,190l.1-.43c.93-2.82,4.77-2.73,8.25-2.01l.07-1.36s3.1,1.37,4.56,2.89c1.47.71,2.84,1.61,4.09,2.67l4.18,3.57-8.41,2.07-1.4-2.31c-1.96.45-4.46.6-4.94.45-7.45-.85-6.49-5.55-6.49-5.55Z"/>
  </g>
  <circle class="cls-6" cx="100.01" cy="166.9" r="1.43"/>
  <g>
    <g>
      <path class="cls-28" d="M207.47,591.35c.87-6.92-4.09-3.77-8.16-4.6l-5.04-1.02c.07-.39.12-.79.12-1.21v-2.12c0-4.06-3.32-7.38-7.38-7.38h-31.81c-4.06,0-7.38,3.32-7.38,7.38v2.12c0,.41.06.8.12,1.2l-5.09,1.03c-4.08.83-7.27,4-8.12,8.07l-1.16,5.52,65.78-.61,8.13-8.38Z"/>
      <path class="cls-34" d="M183.18,583.48c-2.22-.45-3.82-2.4-3.82-4.67v-2.02h-16.56v2.02c0,2.27-1.6,4.22-3.82,4.67,0,0,11.26,3.75,24.2,0Z"/>
      <g>
        <path class="cls-34" d="M200.91,547.24v-6.45c0-13.76-11.26-25.02-25.02-25.02h-9.6c-13.76,0-25.02,11.26-25.02,25.02v6.46s-.03,0-.05,0c-2.32,0-4.21,1.88-4.21,4.21s1.88,4.21,4.21,4.21c.02,0,.03,0,.05,0h0c0,13.77,11.26,25.03,25.02,25.03h9.6c13.76,0,25.02-11.26,25.02-25.02h0c2.32,0,4.21-1.88,4.21-4.21s-1.88-4.21-4.21-4.21Z"/>
        <circle class="cls-3" cx="183.91" cy="553.11" r="2.53"/>
        <circle class="cls-3" cx="156.89" cy="553.11" r="2.53"/>
        <g>
          <g>
            <circle class="cls-30" cx="146.44" cy="537.87" r="9.56"/>
            <circle class="cls-30" cx="158.61" cy="537.87" r="9.56"/>
            <circle class="cls-30" cx="170.78" cy="537.87" r="9.56"/>
            <circle class="cls-30" cx="182.95" cy="537.87" r="9.56"/>
            <circle class="cls-30" cx="195.12" cy="537.87" r="9.56"/>
          </g>
          <circle class="cls-30" cx="142.97" cy="527.44" r="7.82"/>
          <circle class="cls-30" cx="146.44" cy="518.75" r="7.82"/>
          <circle class="cls-30" cx="195.12" cy="518.75" r="7.82"/>
          <circle class="cls-30" cx="153.4" cy="511.79" r="7.82"/>
          <circle class="cls-30" cx="162.09" cy="508.32" r="7.82"/>
          <circle class="cls-30" cx="169.91" cy="505.71" r="8.69"/>
          <circle class="cls-30" cx="177.74" cy="508.32" r="7.82"/>
          <ellipse class="cls-30" cx="171.65" cy="523.96" rx="24.34" ry="13.04"/>
          <circle class="cls-30" cx="188.17" cy="511.79" r="7.82"/>
          <circle class="cls-30" cx="198.6" cy="527.44" r="7.82"/>
        </g>
        <polyline class="cls-5" points="170.78 553.52 167.31 558.73 170.45 558.73"/>
        <path class="cls-11" d="M163.83,562.21h12.17,0c-3.6,2.72-8.57,2.72-12.17,0h0Z"/>
      </g>
      <line class="cls-7" x1="176.62" y1="590.61" x2="181.26" y2="597.77"/>
      <line class="cls-7" x1="164.32" y1="590.55" x2="159.88" y2="597.84"/>
    </g>
    <g>
      <path class="cls-34" d="M219.46,543.98c-.85,3.84-3.5,6.51-5.93,5.97-2.42-.54-3.7-4.08-2.85-7.92.85-3.84,2.91-4.54,5.33-4.01,2.42.54,4.3,2.11,3.45,5.95Z"/>
      <polygon class="cls-34" points="210.42 544.07 210.39 552.31 215.38 553.62 218.34 546.92 210.42 544.07"/>
    </g>
    <path class="cls-28" d="M189.71,585.67s8,1.14,11.69-13.78c2.77-11.2,5.6-18.51,6.42-22.32.34-1.57,1.88-2.57,3.45-2.25l6.04,1.09c1.51.31,2.52,1.72,2.32,3.25-1.27,9.72-5.72,42.66-20.02,44.64"/>
  </g>
  <g>
    <path class="cls-23" d="M370.56,318.57c-17.19,11-28.59,30.25-28.59,52.18"/>
    <polygon class="cls-27" points="366.85 315.04 376.82 315.06 371.81 323.69 366.85 315.04"/>
  </g>
  <g>
    <path class="cls-23" d="M16.17,371.68c17.19-11,28.59-30.25,28.59-52.18"/>
    <polygon class="cls-27" points="19.89 375.22 9.91 375.19 14.92 366.57 19.89 375.22"/>
  </g>
  <g>
    <path class="cls-23" d="M349.98,584.53c-17-11.29-39.22-13.94-59.28-5.09"/>
    <polygon class="cls-27" points="351.72 579.7 355.72 588.84 345.81 587.74 351.72 579.7"/>
  </g>
  <g>
    <path class="cls-23" d="M59.09,23.06c14.33,14.53,35.54,21.67,56.98,17.11"/>
    <polygon class="cls-27" points="56.4 27.43 54.35 17.67 63.83 20.78 56.4 27.43"/>
  </g>
  <g>
    <g>
      <g>
        <path class="cls-26" d="M237.73,189.71l-.78-6.78c-1.67-14.48-14.89-24.96-29.37-23.29l-10.11,1.17c-14.48,1.67-24.96,14.89-23.29,29.37l.78,6.8s-.03,0-.05,0c-2.45.28-4.2,2.49-3.92,4.94s2.49,4.2,4.94,3.92c.02,0,.03-.01.05-.02h0c1.67,14.49,14.89,24.97,29.37,23.3l10.11-1.17c14.48-1.67,24.96-14.89,23.29-29.37h0c2.45-.28,4.2-2.49,3.92-4.94s-2.49-4.2-4.94-3.92Z"/>
        <circle class="cls-3" cx="220.38" cy="197.97" r="2.68"/>
        <circle class="cls-3" cx="191.96" cy="201.25" r="2.68"/>
        <path class="cls-3" d="M207.62,207.73h-.01s-1.25.12-1.25.12c-.66.06-1.23-.41-1.3-1.06l-.32-2.92c-.04-.38.23-.72.61-.76.32-.09.72.23.77.61l.3,2.74,1.07-.1c.38-.03.72.24.75.62.03.37-.24.71-.61.75Z"/>
        <g>
          <path class="cls-3" d="M206.36,207.85l1.25-.12h.01c.37-.04.64-.38.61-.75-.04-.38-.37-.66-.75-.62l-1.07.1-.3-2.74c-.04-.38-.45-.7-.77-.61-.38.04-.65.38-.61.76l.32,2.92c.08.65.65,1.12,1.3,1.06Z"/>
          <polyline class="cls-48" points="219.52 227.46 210.1 228.55 201.27 229.57"/>
          <g>
            <g>
              <ellipse class="cls-3" cx="220.47" cy="197.91" rx="2.74" ry="2.72" transform="translate(-21.23 26.58) rotate(-6.58)"/>
              <ellipse class="cls-3" cx="192.15" cy="201.18" rx="2.74" ry="2.72" transform="translate(-21.79 23.35) rotate(-6.58)"/>
            </g>
            <g>
              <line class="cls-13" x1="199.47" y1="200.52" x2="212.59" y2="199"/>
              <rect class="cls-13" x="184.99" y="197.39" width="14.53" height="7.92" rx="2.15" ry="2.15" transform="translate(-21.81 23.37) rotate(-6.58)"/>
              <rect class="cls-13" x="212.54" y="194.21" width="14.53" height="7.92" rx="2.15" ry="2.15" transform="translate(-21.27 26.5) rotate(-6.58)"/>
            </g>
          </g>
        </g>
        <path class="cls-35" d="M239.51,185.69c.1-1.57.04-3.35-.2-5.38,0,0,0-.03,0-.03,0-.01,0-.02,0-.04-.09-.76-.2-1.54-.34-2.37l-.17-1.01c-.11-.62-.21-1.26-.33-1.92,0-.02,0-.04-.01-.06-3.76-14.99-19.73-24.78-37.16-22.76-18.76,2.16-32.6,17.37-30.86,33.89.08.81.17,1.62.26,2.38,0,.05.03.35.11.81,0,.06,0,.11,0,.17,0,0,.8,11.27,13.86,8.73.58-.28.87-.7,1-1.04.09-.22.13-.45.13-.7,2.63,1.26,5.45,1.64,8.46,1.14.39-.07.7-.38.76-.77.06-.4-.14-.78-.5-.96-.01,0-.26-.13-.64-.36,2.83,1.04,6.76,1.56,12.09.77.43-.07.76-.42.78-.86.03-.44-.26-.83-.68-.94-.03,0-2.12-.6-4.04-1.9,4.37,1.5,11.84,3.4,18.95,1.98.44-.08.75-.47.74-.91,0-.44-.32-.82-.76-.9-.03,0-2.65-.5-5.02-2.36,3.25,1.22,8.1,2.79,12.29,3.12,0,0,11.77,2.19,11.28-7.7Z"/>
      </g>
      <path class="cls-24" d="M248.19,242.25c-1.35-4.06-4.99-6.92-9.25-7.28l-11.47.27c.02-.41.03-.82-.02-1.25l-.05-.45c-.48-4.15-4.27-7.15-8.41-6.67l-17.96,2.07c-4.15.48-7.15,4.27-6.67,8.41l.05.45c.05.42.15.82.27,1.21l-13.41,2.61c-4.07,1.32-6.96,4.94-7.35,9.2l-.53,5.77,76.65-8.84-1.83-5.5Z"/>
    </g>
    <path class="cls-3" d="M210.88,210.1c-.76-.4-1.93-.17-3.58.68-1-.25-2.87-.58-3.68.12-.24.21-.35.5-.38.81-.03.09-.05.19-.03.3.02.21.36,2.08,4.43,1.61.66-.08,3.77-.55,3.92-2.29.03-.09.04-.19.03-.29-.03-.3-.24-.71-.7-.95Z"/>
  </g>
  <g>
    <rect class="cls-27" x="20.89" y="520.22" width="94.55" height="28" rx="3" ry="3" transform="translate(-59.91 11.12) rotate(-6.49)"/>
    <text class="cls-25" transform="translate(30.55 542.68) rotate(-6.49)"><tspan x="0" y="0">RE</tspan><tspan class="cls-38" x="15.4" y="0">P</tspan><tspan x="22.34" y="0">AIR </tspan><tspan class="cls-40" x="46.14" y="0">C</tspan><tspan x="54.12" y="0">AFÉ</tspan></text>
  </g>
  <path class="cls-24" d="M173.38,256.6s-1.43,11.9,20.04,7.31l4.44-11.98-24.49,4.67Z"/>
  <path class="cls-24" d="M249.41,246.24s6.4,10.13-14.95,15.21l-9.16-8.91,24.12-6.31Z"/>
  <g>
    <g>
      <path class="cls-9" d="M189.52,233.5h44.55c2.61,0,4.73,2.12,4.73,4.73v31.26h-54.01v-31.26c0-2.61,2.12-4.73,4.73-4.73Z" transform="translate(-31.42 30.25) rotate(-7.61)"/>
      <circle class="cls-9" cx="212.18" cy="251.89" r="4.57"/>
    </g>
    <rect class="cls-9" x="187.45" y="269.31" width="54.01" height="4.16" transform="translate(-34.03 30.77) rotate(-7.61)"/>
  </g>
</svg>