<?xml version="1.0" encoding="UTF-8"?>
<svg id="Calque_1" data-name="Calque 1" xmlns="http://www.w3.org/2000/svg" viewBox="0 0 44 61">
  <defs>
    <style>
      .cls-1 {
        fill: #232634;
      }

      .cls-2 {
        fill: none;
      }

      .cls-2, .cls-3, .cls-4 {
        stroke-linecap: round;
      }

      .cls-2, .cls-4 {
        stroke: #232634;
        stroke-miterlimit: 10;
        stroke-width: .75px;
      }

      .cls-5 {
        fill: #edece6;
      }

      .cls-6 {
        fill: #f4df1e;
      }

      .cls-3 {
        fill: #d86c09;
        stroke: #d86c09;
        stroke-linejoin: round;
      }

      .cls-4 {
        fill: #fff;
      }
    </style>
  </defs>
  <path class="cls-6" d="M38.75,29.66v-3.71c0-7.92-6.48-14.39-14.39-14.39h-5.52c-7.92,0-14.39,6.48-14.39,14.39v3.71s-.02,0-.03,0c-1.34,0-2.42,1.08-2.42,2.42s1.08,2.42,2.42,2.42c0,0,.02,0,.03,0h0c0,7.92,6.48,14.4,14.39,14.4h5.52c7.92,0,14.39-6.48,14.39-14.39h0c1.34,0,2.42-1.08,2.42-2.42s-1.08-2.42-2.42-2.42Z"/>
  <circle class="cls-1" cx="28.88" cy="33.03" r="1.45"/>
  <circle class="cls-1" cx="13.34" cy="33.03" r="1.45"/>
  <path class="cls-2" d="M21.2,33.44l-1.41,2.86c-.13.27-.03.6.24.74l1.21.63"/>
  <path class="cls-3" d="M39.56,23.03c-1.05-7.85-8.76-13.95-18.13-13.95-10.03,0-18.17,6.99-18.26,15.64,0,.44,0,.87,0,1.29,0,0-.2,6.08,5.97,5.6.97-.08.8-.87.3-1.75,1.17,1.06,2.92,2.06,5.36,1.93,0,0-2.89-1.83-2.91-4.31,0,0,1.23,4.59,9.31,4.32,0,0-2.8-1.1-3.59-3.17,0,0,5.93,3.64,11.77,3.18,0,0-2.84-.83-4.03-3.47,0,0,6.48,3.81,10.11,3.51,0,0,4.72,2.25,4.19-7.23-.03-.5-.05-1.03-.09-1.59Z"/>
  <path class="cls-6" d="M28.54,51.31c-1.28-.26-2.2-1.38-2.2-2.69v-1.16h-9.53v1.16c0,1.3-.92,2.43-2.2,2.69,0,0,6.48,2.16,13.92,0Z"/>
  <path class="cls-5" d="M42.49,57.83c-.49-2.34-2.33-4.17-4.67-4.64l-9.28-1.88,2.37.48s-3.36,2.44-9.71,2.44c0,0-7.1-.5-9.31-2.37l2.74-.55-9.28,1.88c-2.34.47-4.18,2.3-4.67,4.64l-.67,3.17h43.16l-.67-3.17Z"/>
  <path class="cls-5" d="M21.2,54.23c6.35,0,9.71-2.44,9.71-2.44l-2.37-.48c-7.44,2.16-13.92,0-13.92,0l-2.74.55c2.22,1.87,9.31,2.37,9.31,2.37Z"/>
  <path class="cls-4" d="M24.06,42.43h0c.85-.15,1.38-1.02,1.12-1.84h0c-.22-.7-.94-1.12-1.67-.97h0c-1.5.32-3.06.32-4.56,0h0c-.72-.16-1.44.26-1.67.97h0c-.26.83.27,1.69,1.12,1.84h0c1.87.32,3.78.32,5.65,0Z"/>
  <line class="cls-4" x1="19.28" y1="39.68" x2="18.98" y2="42.51"/>
  <line class="cls-4" x1="21.24" y1="39.86" x2="21.24" y2="42.67"/>
  <line class="cls-4" x1="23.19" y1="39.68" x2="23.51" y2="42.51"/>
</svg>