<?xml version="1.0" encoding="UTF-8"?>
<svg id="Calque_1" data-name="Calque 1" xmlns="http://www.w3.org/2000/svg" viewBox="0 0 44 61">
  <defs>
    <style>
      .cls-1 {
        fill: #232634;
      }

      .cls-2 {
        fill: none;
        stroke: #232634;
        stroke-linecap: round;
        stroke-miterlimit: 10;
        stroke-width: .75px;
      }

      .cls-3 {
        fill: #006fff;
      }

      .cls-4 {
        fill: #f7500f;
      }

      .cls-5 {
        fill: #614427;
      }
    </style>
  </defs>
  <path class="cls-3" d="M5.6,24.27c-.58,0-1.13.23-1.54.64-.41.41-.63.96-.63,1.54,0,.59.24,1.12.62,1.51-.39.41-.61.94-.61,1.51,0,.57.22,1.1.62,1.51-.39.41-.61.94-.61,1.51,0,.57.22,1.1.62,1.51-.39.41-.61.94-.61,1.51,0,.59.24,1.11.62,1.51-.39.41-.61.94-.61,1.51,0,.57.22,1.1.62,1.51-.39.41-.61.94-.61,1.51,0,.57.22,1.1.62,1.51-.38.39-.61.92-.61,1.51,0,.59.24,1.12.62,1.51-.38.39-.61.92-.61,1.51,0,.59.24,1.61.58,2.43.32.78.86,1.72,1.61,1.71.07,0,.13,0,.2-.02,1.21-.29,1.97-3.12,1.96-4.13,0-.59-.24-1.12-.62-1.51.38-.39.61-.92.61-1.51,0-.57-.22-1.1-.62-1.51.38-.39.61-.92.61-1.51,0-.57-.22-1.1-.62-1.51.38-.39.61-.92.61-1.51,0-.57-.22-1.1-.62-1.51.39-.41.61-.94.61-1.51,0-.57-.22-1.1-.62-1.51.39-.41.61-.94.61-1.51,0-.57-.22-1.1-.62-1.51.39-.41.61-.94.61-1.51,0-.57-.22-1.1-.62-1.51.39-.41.61-.94.61-1.51,0-1.2-.98-2.17-2.18-2.17Z"/>
  <path class="cls-3" d="M40.13,24.81c-.41-.41-.96-.63-1.54-.63-1.2,0-2.17.98-2.17,2.18,0,.57.22,1.1.62,1.51-.38.39-.61.92-.61,1.51,0,.59.24,1.12.62,1.51-.38.39-.61.92-.61,1.51,0,.57.22,1.1.62,1.51-.39.41-.61.94-.61,1.51,0,.57.22,1.1.62,1.51-.39.41-.61.94-.61,1.51,0,.59.24,1.11.62,1.51-.39.41-.61.94-.61,1.51,0,.57.22,1.1.62,1.51-.39.41-.61.94-.61,1.51,0,.57.22,1.1.62,1.51-.39.41-.61.94-.61,1.51,0,1.07.87,4.14,2.19,4.14.07,0,.14,0,.21-.03.64-.15,1.1-.99,1.39-1.7.33-.81.57-1.83.57-2.43,0-.57-.22-1.1-.62-1.51.39-.41.61-.94.61-1.51,0-.57-.22-1.1-.62-1.51.39-.41.61-.94.61-1.51,0-.59-.24-1.11-.62-1.51.39-.41.61-.94.61-1.51,0-.57-.22-1.1-.62-1.51.39-.41.61-.94.61-1.51,0-.57-.22-1.1-.62-1.51.39-.41.61-.94.61-1.51,0-.59-.24-1.12-.62-1.51.38-.39.61-.92.61-1.51,0-.59-.24-1.12-.62-1.51.38-.39.61-.92.61-1.51,0-.58-.23-1.13-.64-1.54Z"/>
  <path class="cls-5" d="M29.32,51.34c-1.29-.26-2.21-1.38-2.22-2.7v-1.17s-9.59.03-9.59.03v1.17c0,1.31-.91,2.44-2.2,2.71,0,0,2.83,8.07,6.87,8.09,2.12,0,7.48-4.9,7.13-8.12Z"/>
  <path class="cls-4" d="M0,61.05l.68-3.19c.5-2.35,2.35-4.18,4.71-4.65l9.93-1.86c1.12,1.85,2.39,6.52,6.95,6.44h0c4.56.07,5.94-4.59,7.05-6.44l9.34,1.86c2.36.47,4.21,2.3,4.71,4.65l.68,3.19"/>
  <circle class="cls-1" cx="29.62" cy="33.85" r="1.46"/>
  <circle class="cls-1" cx="13.98" cy="33.9" r="1.46"/>
  <path class="cls-2" d="M21.13,36.1v1.6c0,.15.12.28.27.28h.69"/>
  <path class="cls-5" d="M39.54,30.43v-3.73c-.03-7.96-6.57-14.46-14.53-14.44l-5.56.02c-7.96.02-14.46,6.56-14.44,14.52v3.74s0,0-.02,0c-1.34,0-2.43,1.1-2.43,2.44s1.1,2.43,2.44,2.43c0,0,.02,0,.03,0h0c.02,7.97,6.56,14.47,14.52,14.45l5.56-.02c7.96-.02,14.46-6.56,14.44-14.52h0c1.34,0,2.43-1.1,2.43-2.44s-1.1-2.43-2.44-2.43Z"/>
  <circle class="cls-1" cx="29.87" cy="34.92" r="1.46"/>
  <circle class="cls-1" cx="14.24" cy="34.96" r="1.46"/>
  <path class="cls-3" d="M40.29,23.54c-1.08-8.61-8.85-15.28-18.29-15.25-10.09.03-18.26,7.71-18.32,17.19,0,.48,0,.95,0,1.42,0,0-.18,6.67,6.02,6.12.98-.09,2.78-1.81,2.76-4.53,0,0-1.49,4.92,6.65,4.6,0,0,4.79-1.65,3.99-3.92,0,0,1.1,4.53,6.98,4.02,0,0,4.92-.93,3.72-3.82,0,0-.29,2.12,2.4,3.84,0,0,4.76,2.46,4.19-7.94-.03-.55-.06-1.13-.09-1.74Z"/>
  <path class="cls-2" d="M21.76,41.12s2.22.33,2.21-1.3"/>
  <line class="cls-2" x1="21.75" y1="35.76" x2="21.75" y2="37.7"/>
</svg>