<?xml version="1.0" encoding="UTF-8"?>
<svg id="Calque_1" data-name="Calque 1" xmlns="http://www.w3.org/2000/svg" viewBox="0 0 44 61">
  <defs>
    <style>
      .cls-1 {
        fill: #232634;
      }

      .cls-2 {
        fill: #3e18c9;
      }

      .cls-3 {
        fill: #ad8631;
      }

      .cls-4 {
        fill: #c6c3b5;
      }

      .cls-5 {
        fill: #212636;
      }

      .cls-6 {
        fill: none;
        stroke: #232634;
        stroke-miterlimit: 10;
        stroke-width: .8px;
      }
    </style>
  </defs>
  <path class="cls-3" d="M40.83,27.31v-3.89c0-8.31-6.8-15.11-15.11-15.11h-5.8c-8.31,0-15.11,6.8-15.11,15.11v3.9s-.02,0-.03,0c-1.4,0-2.54,1.14-2.54,2.54s1.14,2.54,2.54,2.54c.01,0,.02,0,.03,0h0c0,8.32,6.8,15.12,15.11,15.12h5.8c8.31,0,15.11-6.8,15.11-15.11h0c1.4,0,2.54-1.14,2.54-2.54s-1.14-2.54-2.54-2.54Z"/>
  <circle class="cls-1" cx="30.46" cy="30.86" r="1.53"/>
  <circle class="cls-1" cx="14.15" cy="30.86" r="1.53"/>
  <path class="cls-1" d="M22.6,35.55h0s-.72-.02-.72-.02c-.38-.01-.67-.31-.67-.69v-1.68c0-.22.19-.39.4-.39.19-.03.39.18.39.4v1.57s.61.01.61.01c.22,0,.39.18.39.4,0,.21-.18.39-.39.39Z"/>
  <path class="cls-1" d="M21.87,35.54l.72.02h0c.21,0,.39-.17.39-.39,0-.22-.17-.4-.39-.4h-.62s0-1.58,0-1.58c0-.22-.21-.42-.39-.4-.22,0-.39.18-.39.39v1.68c0,.37.29.67.66.69Z"/>
  <polyline class="cls-5" points="28.05 47.51 22.64 47.51 17.57 47.51"/>
  <ellipse class="cls-1" cx="30.52" cy="30.83" rx="1.56" ry="1.55"/>
  <ellipse class="cls-1" cx="14.26" cy="30.83" rx="1.56" ry="1.55"/>
  <line class="cls-6" x1="18.45" y1="30.94" x2="25.98" y2="30.94"/>
  <rect class="cls-6" x="10.17" y="28.68" width="8.28" height="4.52" rx="2.15" ry="2.15"/>
  <rect class="cls-6" x="25.98" y="28.68" width="8.28" height="4.52" rx="2.15" ry="2.15"/>
  <path class="cls-4" d="M42.1,25.15c.16-.88.24-1.9.24-3.06,0,0,0-.02,0-.02,0,0,0-.01,0-.02,0-.44-.01-.89-.04-1.36l-.03-.58c-.02-.36-.04-.73-.06-1.11,0-.01,0-.02,0-.04-1.15-8.74-9.56-15.33-19.56-15.33-10.77,0-19.6,7.71-19.7,17.18,0,.47,0,.93,0,1.37,0,.03,0,.2.01.46,0,.03-.01.06,0,.1,0,0-.28,6.44,7.28,5.85.35-.12.54-.34.64-.52.06-.12.1-.25.12-.39,1.41.89,2.98,1.29,4.72,1.2.23-.01.42-.17.48-.39.06-.22-.03-.45-.22-.58,0,0-.14-.09-.34-.25,1.53.78,3.73,1.32,6.8,1.22.25,0,.46-.19.5-.43.04-.25-.09-.49-.32-.58-.02,0-1.16-.48-2.17-1.34,2.38,1.14,6.49,2.7,10.61,2.36.25-.02.45-.22.48-.47.03-.25-.13-.49-.37-.56-.02,0-1.47-.45-2.69-1.67,1.76.9,4.41,2.11,6.76,2.57,0,0,6.53,2.01,6.9-3.63Z"/>
  <path class="cls-2" d="M43.32,57.77c-.5-2.39-2.37-4.25-4.76-4.73l-6.52-.6c.04-.23.07-.47.07-.71v-.26c0-2.38-1.95-4.33-4.33-4.33h-10.31c-2.38,0-4.33,1.95-4.33,4.33v.26c0,.24.03.47.07.7l-7.77.6c-2.39.48-4.26,2.34-4.76,4.73l-.68,3.23h44s-.68-3.23-.68-3.23Z"/>
  <path class="cls-1" d="M24.29,37.11c-.4-.27-1.08-.22-2.07.15-.55-.21-1.59-.52-2.1-.17-.15.1-.23.26-.27.43-.02.05-.04.11-.04.17,0,.12.07,1.2,2.41,1.2.38,0,2.17-.06,2.37-1.04.02-.05.04-.11.04-.16,0-.17-.09-.42-.33-.58Z"/>
</svg>