<?xml version="1.0" encoding="UTF-8"?>
<svg id="Calque_1" data-name="Calque 1" xmlns="http://www.w3.org/2000/svg" viewBox="0 0 44 61">
  <defs>
    <style>
      .cls-1 {
        fill: #b2a469;
      }

      .cls-2 {
        fill: #232634;
      }

      .cls-3 {
        fill: none;
        stroke: #232634;
        stroke-miterlimit: 10;
        stroke-width: .75px;
      }

      .cls-3, .cls-4 {
        stroke-linecap: round;
      }

      .cls-4 {
        stroke: #d2afdb;
        stroke-linejoin: round;
      }

      .cls-4, .cls-5 {
        fill: #d2afdb;
      }

      .cls-6 {
        fill: #edd8cc;
      }
    </style>
  </defs>
  <rect class="cls-4" x="6.76" y="42.45" width="28.54" height="9.7"/>
  <path class="cls-1" d="M0,60.97l.67-3.17c.49-2.34,2.33-4.17,4.67-4.64l9.28-1.88c1.28-.26,2.2-1.38,2.2-2.69v-1.16h9.53s0,1.16,0,1.16c0,1.3.92,2.43,2.2,2.69l9.28,1.88c2.34.47,4.18,2.3,4.67,4.64l.67,3.17"/>
  <circle class="cls-2" cx="28.83" cy="33.9" r="1.45"/>
  <circle class="cls-2" cx="13.29" cy="33.9" r="1.45"/>
  <path class="cls-3" d="M20.39,36.11v1.59c0,.15.11.27.26.28l.68.02"/>
  <path class="cls-4" d="M39.51,22.63c-1.05-7.97-8.76-14.16-18.13-14.16-10.03,0-18.17,7.09-18.26,15.87,0,.44,0,.88,0,1.31,0,0-.2,6.17,5.97,5.68.97-.08.8-.89.3-1.78,1.17,1.08,2.92,2.09,5.36,1.96,0,0-2.89-1.85-2.91-4.37,0,0,1.23,4.66,9.31,4.38,0,0-2.8-1.12-3.59-3.22,0,0,5.93,3.69,11.77,3.23,0,0-2.84-.84-4.03-3.52,0,0,6.48,3.87,10.11,3.56,0,0,4.72,2.29,4.19-7.34-.03-.51-.05-1.05-.09-1.61Z"/>
  <path class="cls-4" d="M3.11,26.11v25.21c0,.73.59,1.31,1.31,1.31h2.71c.73,0,1.31-.59,1.31-1.31v-25.83"/>
  <path class="cls-4" d="M34.3,26.11v25.29c0,.68.55,1.24,1.24,1.24h2.87c.68,0,1.24-.55,1.24-1.24v-25.91"/>
  <path class="cls-1" d="M38.7,30.52v-3.71c0-7.92-6.48-14.39-14.39-14.39h-5.52c-7.92,0-14.39,6.48-14.39,14.39v3.71s-.02,0-.03,0c-1.34,0-2.42,1.08-2.42,2.42s1.08,2.42,2.42,2.42c0,0,.02,0,.03,0h0c0,7.92,6.48,14.4,14.39,14.4h5.52c7.92,0,14.39-6.48,14.39-14.39h0c1.34,0,2.42-1.08,2.42-2.42s-1.08-2.42-2.42-2.42Z"/>
  <circle class="cls-2" cx="28.83" cy="33.9" r="1.45"/>
  <circle class="cls-2" cx="13.29" cy="33.9" r="1.45"/>
  <path class="cls-3" d="M20.39,36.11v1.59c0,.15.11.27.26.28l.68.02"/>
  <path class="cls-4" d="M39.51,22.63c-1.05-7.97-8.76-14.16-18.13-14.16-10.03,0-18.17,7.09-18.26,15.87,0,.44,0,.88,0,1.31,0,0-.2,6.17,5.97,5.68.97-.08.8-.89.3-1.78,1.17,1.08,2.92,2.09,5.36,1.96,0,0-2.89-1.85-2.91-4.37,0,0,1.23,4.66,9.31,4.38,0,0-2.8-1.12-3.59-3.22,0,0,5.93,3.69,11.77,3.23,0,0-2.84-.84-4.03-3.52,0,0,6.48,3.87,10.11,3.56,0,0,4.72,2.29,4.19-7.34-.03-.51-.05-1.05-.09-1.61Z"/>
  <ellipse class="cls-6" cx="12.03" cy="42.88" rx="1.63" ry="1.02"/>
  <ellipse class="cls-6" cx="30.45" cy="42.88" rx="1.63" ry="1.02"/>
  <path class="cls-3" d="M17.75,40.32s5.37.22,6.21,0"/>
  <path class="cls-3" d="M24.19,39.29s-.24,1.37.24,1.9"/>
  <rect class="cls-2" x="8.25" y="55.86" width="26.66" height="5.14"/>
  <polygon class="cls-2" points="8.25 55.86 7.56 52.64 11.27 51.96 12.68 56.31 8.25 55.86"/>
  <polygon class="cls-2" points="34.91 55.88 35.59 52.66 31.89 51.97 30.47 56.33 34.91 55.88"/>
  <circle class="cls-5" cx="10.76" cy="58.23" r="1.27"/>
  <circle class="cls-5" cx="32.38" cy="58.23" r="1.27"/>
  <path class="cls-4" d="M3.11,26.11s1.95,18.91,1.95,25.21c0,.73.59,1.31,1.31,1.31h2.71c.73,0,1.31-.59,1.31-1.31,0-6.46-1.95-25.83-1.95-25.83"/>
  <path class="cls-4" d="M34.3,26.11s-1.57,18.97-1.57,25.29c0,.68.55,1.24,1.24,1.24h2.87c.68,0,1.24-.55,1.24-1.24,0-6.48,1.57-25.91,1.57-25.91"/>
</svg>