<?xml version="1.0" encoding="UTF-8"?>
<svg id="Calque_1" data-name="Calque 1" xmlns="http://www.w3.org/2000/svg" viewBox="0 0 120 120">
  <defs>
    <style>
      .cls-1 {
        fill: #f0f2f8;
      }

      .cls-2 {
        stroke: #f0f2f8;
        stroke-width: 2px;
      }

      .cls-2, .cls-3, .cls-4 {
        fill: none;
        stroke-linecap: round;
        stroke-linejoin: round;
      }

      .cls-3 {
        stroke: #fff;
      }

      .cls-4 {
        stroke: #8d9ac7;
      }

      .cls-5 {
        fill: #212636;
      }
    </style>
  </defs>
  <path class="cls-1" d="M9.72,47h12.25c1.1,0,2,.9,2,2v45.14c0,1.3-1.06,2.36-2.36,2.36h-11.53c-1.3,0-2.36-1.06-2.36-2.36v-45.14c0-1.1.9-2,2-2Z"/>
  <line class="cls-2" x1="5" y1="97" x2="115" y2="97"/>
  <path class="cls-1" d="M28.59,47h79.86c1.1,0,2,.9,2,2v45.14c0,1.3-1.06,2.36-2.36,2.36H28.95c-1.3,0-2.36-1.06-2.36-2.36v-45.14c0-1.1.9-2,2-2Z"/>
  <path class="cls-5" d="M9.59,46.5h12.53c1.03,0,1.86.83,1.86,1.86v5.97H7.72v-5.97c0-1.03.83-1.86,1.86-1.86Z"/>
  <line class="cls-4" x1="46.31" y1="56.5" x2="89.99" y2="56.5"/>
  <line class="cls-4" x1="10.28" y1="56.5" x2="21.08" y2="56.5"/>
  <g>
    <line class="cls-3" x1="42.2" y1="54.33" x2="42.2" y2="95.16"/>
    <line class="cls-3" x1="94.85" y1="68.79" x2="42.3" y2="68.79"/>
    <line class="cls-3" x1="94.85" y1="54.33" x2="94.85" y2="95.16"/>
  </g>
  <path class="cls-5" d="M28.46,46.5h80.14c1.03,0,1.86.83,1.86,1.86v5.97H26.59v-5.97c0-1.03.83-1.86,1.86-1.86Z"/>
</svg>