<?xml version="1.0" encoding="UTF-8"?>
<svg id="Calque_1" data-name="Calque 1" xmlns="http://www.w3.org/2000/svg" viewBox="0 0 44 61">
  <defs>
    <style>
      .cls-1 {
        stroke: #d1cfc5;
      }

      .cls-1, .cls-2 {
        stroke-linecap: round;
        stroke-width: .75px;
      }

      .cls-1, .cls-2, .cls-3, .cls-4 {
        stroke-miterlimit: 10;
      }

      .cls-1, .cls-2, .cls-4 {
        fill: none;
      }

      .cls-5 {
        fill: #d1cfc5;
      }

      .cls-6, .cls-3 {
        fill: #232634;
      }

      .cls-2, .cls-3, .cls-4 {
        stroke: #232634;
      }

      .cls-7 {
        fill: #006fff;
      }
    </style>
  </defs>
  <path class="cls-6" d="M43.32,57.77c-.5-2.39-2.37-4.25-4.76-4.73l-2.96-.6c.04-.23.07-.47.07-.71v-1.24c0-2.38-1.95-4.33-4.33-4.33H12.69c-2.38,0-4.33,1.95-4.33,4.33v1.24c0,.24.03.47.07.7l-2.98.6c-2.39.48-4.26,2.34-4.76,4.73l-.68,3.23h44l-.68-3.23Z"/>
  <path class="cls-5" d="M29.1,51.12c-1.3-.26-2.24-1.41-2.24-2.74v-1.18h-9.71v1.18c0,1.33-.94,2.47-2.24,2.74,0,0,6.6,2.2,14.19,0Z"/>
  <path class="cls-5" d="M39.5,29.86v-3.78c0-8.07-6.6-14.68-14.68-14.68h-5.63c-8.07,0-14.68,6.6-14.68,14.68v3.79s-.02,0-.03,0c-1.36,0-2.47,1.1-2.47,2.47s1.1,2.47,2.47,2.47c.01,0,.02,0,.03,0h0c0,8.08,6.6,14.68,14.68,14.68h5.63c8.07,0,14.68-6.6,14.68-14.68h0c1.36,0,2.47-1.1,2.47-2.47s-1.1-2.47-2.47-2.47Z"/>
  <path class="cls-2" d="M22.74,39.88c0,.48-.5.87-1.11.87s-1.11-.39-1.11-.87"/>
  <circle class="cls-6" cx="29.52" cy="33.31" r="1.48"/>
  <circle class="cls-6" cx="13.68" cy="33.31" r="1.48"/>
  <path class="cls-2" d="M24.11,35.83c0,.99-1.11,1.8-2.48,1.8s-2.48-.81-2.48-1.8"/>
  <path class="cls-7" d="M4.6,24.54h34.82s.25-17.62-17.81-17.62S4.6,24.54,4.6,24.54Z"/>
  <rect class="cls-7" x="2.93" y="21.7" width="37.95" height="5.12" rx="1.31" ry="1.31"/>
  <line class="cls-1" x1="26.37" y1="55.3" x2="29.1" y2="59.5"/>
  <line class="cls-1" x1="19.16" y1="55.26" x2="16.55" y2="59.54"/>
  <ellipse class="cls-3" cx="13.71" cy="33.55" rx="4.84" ry="2.64"/>
  <ellipse class="cls-3" cx="29.52" cy="33.55" rx="4.84" ry="2.64"/>
  <line class="cls-4" x1="18.56" y1="33.55" x2="24.59" y2="33.55"/>
</svg>