<?xml version="1.0" encoding="UTF-8"?>
<svg id="Calque_1" data-name="Calque 1" xmlns="http://www.w3.org/2000/svg" viewBox="0 0 44 61">
  <defs>
    <style>
      .cls-1 {
        fill: #e5cf63;
      }

      .cls-2 {
        fill: #232634;
      }

      .cls-3 {
        fill: none;
        stroke-width: .75px;
      }

      .cls-3, .cls-4 {
        stroke-linejoin: round;
      }

      .cls-3, .cls-4, .cls-5 {
        stroke: #232634;
        stroke-linecap: round;
      }

      .cls-6 {
        fill: #f7500f;
      }

      .cls-4 {
        stroke-width: .76px;
      }

      .cls-4, .cls-5 {
        fill: #fff;
      }

      .cls-7 {
        fill: #8fadf9;
      }

      .cls-5 {
        stroke-miterlimit: 10;
        stroke-width: .81px;
      }
    </style>
  </defs>
  <path class="cls-7" d="M0,61l.68-3.22c.5-2.38,2.36-4.23,4.74-4.71l9.42-1.91c1.3-.26,2.23-1.4,2.23-2.73v-1.18s9.67,0,9.67,0v1.18c0,1.32.93,2.46,2.23,2.73l9.42,1.91c2.38.48,4.24,2.33,4.74,4.71l.68,3.22"/>
  <rect class="cls-1" x="8.37" y="55.81" width="27.06" height="5.19"/>
  <polygon class="cls-1" points="8.37 55.81 7.68 52.54 11.44 51.85 12.87 56.27 8.37 55.81"/>
  <polygon class="cls-1" points="35.43 55.83 36.13 52.56 32.37 51.87 30.94 56.29 35.43 55.83"/>
  <path class="cls-7" d="M39.34,29.11v-1.92c0-9.05-7.41-16.46-16.46-16.46h-1.91c-9.05,0-16.46,7.41-16.46,16.46v1.92s-.02,0-.03,0c-1.36,0-2.46,1.1-2.46,2.46s1.1,2.46,2.46,2.46c.01,0,.02,0,.03,0h0c0,8.04,6.57,14.62,14.61,14.62h5.61c8.04,0,14.61-6.57,14.61-14.61h0c1.36,0,2.46-1.1,2.46-2.46s-1.1-2.46-2.46-2.46Z"/>
  <path class="cls-3" d="M20.84,33.5s-.09.92-.23,2.56h1.92"/>
  <path class="cls-4" d="M11.38,32.15h3.82c.33,0,.6.27.6.6v.11c0,1.1-.89,1.99-1.99,1.99h-1.04c-1.1,0-1.99-.89-1.99-1.99v-.11c0-.33.27-.6.6-.6Z"/>
  <path class="cls-2" d="M14.84,32.35c0,.85-.7,1.55-1.56,1.55s-1.56-.69-1.56-1.55"/>
  <path class="cls-4" d="M27.02,32.35h5.03v.3c0,1.33-1.08,2.41-2.41,2.41h-.21c-1.33,0-2.41-1.08-2.41-2.41v-.3h0Z"/>
  <path class="cls-2" d="M31.08,32.54c0,.85-.7,1.55-1.56,1.55s-1.56-.69-1.56-1.55"/>
  <path class="cls-5" d="M24.99,41.46h0c.93-.16,1.51-1.11,1.22-2.01h0c-.24-.77-1.03-1.23-1.82-1.06h0c-1.64.35-3.33.35-4.97,0h0c-.79-.17-1.58.29-1.82,1.06h0c-.29.9.29,1.85,1.22,2.01h0c2.04.35,4.13.35,6.17,0Z"/>
  <line class="cls-5" x1="19.77" y1="38.46" x2="19.44" y2="41.55"/>
  <line class="cls-5" x1="21.91" y1="38.65" x2="21.91" y2="41.72"/>
  <line class="cls-5" x1="24.04" y1="38.46" x2="24.39" y2="41.55"/>
  <rect class="cls-2" x="25.46" y="28.79" width="8.61" height="7.8" rx="3.74" ry="3.74"/>
  <polyline class="cls-3" points="23.4 26.76 29.76 32.69 38.33 39.33"/>
  <path class="cls-6" d="M4.67,25.62h34.67s.25-17.55-17.73-17.55S4.67,25.62,4.67,25.62Z"/>
  <rect class="cls-6" x="3.01" y="22.8" width="37.79" height="5.1" rx="1.31" ry="1.31"/>
</svg>